<svg width="342" height="261" viewBox="0 0 342 261" fill="none" xmlns="http://www.w3.org/2000/svg">
<rect y="0.101074" width="342" height="260.899" rx="12" fill="#FAFAFA"/>
<rect x="223.129" y="46.0271" width="38.9744" height="39.086" rx="7" fill="white" stroke="url(#paint0_linear_1913_10740)" stroke-width="2"/>
<rect x="142.256" y="103.679" width="52.159" height="52.3084" rx="11.2698" fill="#0F4C5C"/>
<path d="M177.731 117.9C174.231 119.696 171.058 122.09 168.212 125.083C168.572 126.186 169.095 127.368 169.782 128.628C170.469 129.857 171.189 131.18 171.941 132.598C173.937 136.19 175.36 139.262 176.21 141.814L172.088 148.147C165.971 146.603 160.54 144.445 155.797 141.672C154.325 140.79 152.869 139.876 151.43 138.931L154.717 133.165C159.69 136.473 164.237 138.899 168.359 140.443C167.574 138.584 166.396 136.347 164.826 133.732C163.256 131.086 162.111 129.101 161.391 127.777C160.704 126.423 160.164 125.083 159.772 123.76C161.8 121.334 164.384 118.94 167.525 116.577C170.404 114.403 173.151 112.717 175.769 111.52L185.239 117.616C184.618 120.294 183.195 123.618 180.97 127.588C180.414 128.597 179.923 129.4 179.498 129.999L173.609 126.738C174.918 124.721 176.292 121.775 177.731 117.9Z" fill="white"/>
<path d="M255.283 64.744C255.283 71.007 250.39 75.6438 244.078 75.6438C242.945 75.6438 241.857 75.4937 240.835 75.2119C240.636 75.1566 240.425 75.1723 240.236 75.2555L238.012 76.2403C237.43 76.4978 236.774 76.083 236.755 75.4456L236.694 73.4464C236.686 73.2 236.576 72.9699 236.392 72.8058C234.212 70.8506 232.873 68.0203 232.873 64.744C232.873 58.481 237.766 53.8442 244.078 53.8442C250.39 53.8442 255.283 58.481 255.283 64.744Z" fill="#0A5F59"/>
<path d="M247.121 67.8818L251.022 61.8355C251.414 61.2278 250.688 60.5203 250.093 60.9316L246.021 63.7484C245.884 63.8433 245.703 63.846 245.563 63.7552L241.948 61.4098C241.642 61.2112 241.234 61.2993 241.036 61.6058L237.135 67.6521C236.742 68.2598 237.469 68.9672 238.063 68.556L242.136 65.7387C242.274 65.6439 242.455 65.6412 242.595 65.732L246.208 68.0768C246.514 68.2755 246.923 68.1874 247.121 67.8809V67.8818Z" fill="white"/>
<rect x="227.025" y="186.737" width="31.1795" height="31.2688" rx="7" fill="white" stroke="url(#paint1_linear_1913_10740)" stroke-width="2"/>
<path d="M245.537 200.762C246.64 201.555 247.991 202.022 249.45 202.022V199.196C249.174 199.196 248.898 199.167 248.628 199.11V201.334C247.169 201.334 245.819 200.867 244.716 200.074V205.841C244.716 208.725 242.392 211.064 239.526 211.064C238.456 211.064 237.462 210.738 236.637 210.18C237.579 211.15 238.893 211.752 240.347 211.752C243.214 211.752 245.537 209.413 245.537 206.528V200.762H245.537ZM246.551 197.911C245.987 197.291 245.617 196.49 245.537 195.605V195.242H244.759C244.955 196.367 245.623 197.328 246.551 197.911ZM238.45 207.967C238.135 207.551 237.965 207.043 237.965 206.52C237.965 205.201 239.028 204.131 240.339 204.131C240.584 204.131 240.827 204.169 241.059 204.243V201.354C240.787 201.316 240.513 201.3 240.238 201.306V203.555C240.005 203.481 239.762 203.443 239.518 203.443C238.206 203.443 237.144 204.513 237.144 205.832C237.144 206.765 237.675 207.573 238.45 207.967Z" fill="#FF004F"/>
<path d="M244.714 200.074C245.817 200.867 247.168 201.334 248.627 201.334V199.11C247.813 198.935 247.092 198.507 246.55 197.911C245.622 197.328 244.953 196.367 244.757 195.242H242.712V206.528C242.707 207.844 241.646 208.909 240.338 208.909C239.567 208.909 238.882 208.54 238.448 207.967C237.673 207.573 237.142 206.765 237.142 205.832C237.142 204.513 238.205 203.443 239.516 203.443C239.767 203.443 240.009 203.482 240.237 203.555V201.306C237.421 201.365 235.156 203.68 235.156 206.528C235.156 207.95 235.72 209.239 236.635 210.18C237.461 210.738 238.455 211.064 239.525 211.064C242.391 211.064 244.714 208.725 244.714 205.841V200.074H244.714Z" fill="#0A5F59"/>
<path d="M248.628 199.11V198.508C247.894 198.509 247.174 198.302 246.551 197.911C247.103 198.519 247.829 198.938 248.628 199.11ZM244.759 195.242C244.74 195.134 244.726 195.026 244.716 194.917V194.554H241.891V205.84C241.887 207.156 240.826 208.221 239.517 208.221C239.133 208.221 238.771 208.13 238.449 207.967C238.883 208.54 239.568 208.909 240.339 208.909C241.647 208.909 242.709 207.844 242.713 206.528V195.242H244.759ZM240.238 201.306V200.666C240.002 200.634 239.764 200.617 239.526 200.618C236.66 200.617 234.336 202.956 234.336 205.84C234.336 207.649 235.249 209.243 236.637 210.18C235.722 209.239 235.158 207.95 235.158 206.528C235.158 203.681 237.422 201.365 240.238 201.306Z" fill="#00F2EA"/>
<rect x="75.0254" y="46.0271" width="38.9744" height="39.086" rx="7" fill="white" stroke="url(#paint2_linear_1913_10740)" stroke-width="2"/>
<path d="M84.7695 75.3416L86.3448 69.5704C85.3727 67.881 84.862 65.966 84.8629 64.0023C84.8657 57.8631 89.8473 52.8672 95.9681 52.8672C98.9384 52.8681 101.727 54.0284 103.824 56.1335C105.92 58.2386 107.074 61.0366 107.073 64.0126C107.07 70.1528 102.089 75.1487 95.9681 75.1487C94.1099 75.1478 92.2788 74.6805 90.6569 73.7928L84.7695 75.3416ZM90.9295 71.7766C92.4945 72.7084 93.9885 73.2665 95.9644 73.2674C101.051 73.2674 105.196 69.1153 105.198 64.0108C105.2 58.896 101.076 54.7494 95.9718 54.7475C90.881 54.7475 86.7398 58.8997 86.7379 64.0033C86.737 66.0868 87.3458 67.6469 88.3682 69.2791L87.4354 72.6953L90.9295 71.7766ZM101.562 66.6599C101.493 66.5438 101.308 66.4745 101.03 66.335C100.753 66.1955 99.3885 65.5222 99.1335 65.4295C98.8796 65.3368 98.6947 65.2899 98.5089 65.569C98.324 65.8471 97.7917 66.4745 97.6302 66.6599C97.4686 66.8454 97.3062 66.8688 97.0288 66.7292C96.7515 66.5897 95.857 66.2966 94.7972 65.348C93.9727 64.6101 93.4152 63.6989 93.2537 63.4199C93.0921 63.1418 93.2369 62.991 93.3751 62.8524C93.5002 62.7278 93.6524 62.5275 93.7915 62.3645C93.9325 62.2034 93.9783 62.0873 94.0716 61.901C94.1641 61.7156 94.1183 61.5526 94.0483 61.4131C93.9783 61.2745 93.4236 59.9045 93.193 59.3473C92.967 58.8051 92.7382 58.8782 92.5683 58.8697L92.036 58.8604C91.8512 58.8604 91.5505 58.9297 91.2965 59.2087C91.0425 59.4878 90.3254 60.1601 90.3254 61.5301C90.3254 62.9002 91.3198 64.2233 91.458 64.4087C91.5972 64.5942 93.4143 67.4053 96.1978 68.6105C96.8598 68.8971 97.3771 69.0684 97.7796 69.1967C98.4444 69.4084 99.0495 69.3784 99.5276 69.3072C100.061 69.2276 101.169 68.6339 101.401 67.9841C101.632 67.3332 101.632 66.7761 101.562 66.6599Z" fill="#0A5F59"/>
<rect x="76" y="178.919" width="38.9744" height="39.086" rx="7" fill="white" stroke="url(#paint3_linear_1913_10740)" stroke-width="2"/>
<g clip-path="url(#clip0_1913_10740)">
<path d="M109.128 198.951C109.128 191.666 103.239 185.76 95.9742 185.76C88.7096 185.76 82.8203 191.666 82.8203 198.951C82.8203 205.137 87.0674 210.328 92.7967 211.754V202.982H90.0844V198.951H92.7967V197.214C92.7967 192.724 94.8229 190.643 99.2184 190.643C100.052 190.643 101.49 190.807 102.078 190.971V194.625C101.768 194.592 101.228 194.576 100.559 194.576C98.4018 194.576 97.5684 195.395 97.5684 197.525V198.951H101.865L101.127 202.982H97.5684V212.046C104.082 211.257 109.129 205.696 109.129 198.951H109.128Z" fill="#0A5F59"/>
<path d="M101.126 202.982L101.865 198.951H97.568V197.525C97.568 195.395 98.4014 194.576 100.558 194.576C101.228 194.576 101.767 194.592 102.078 194.625V190.971C101.489 190.807 100.051 190.643 99.218 190.643C94.8225 190.643 92.7963 192.724 92.7963 197.214V198.951H90.084V202.982H92.7963V211.754C93.8139 212.008 94.8783 212.143 95.9738 212.143C96.5131 212.143 97.045 212.109 97.5675 212.046V202.982H101.126H101.126Z" fill="white"/>
</g>
<line x1="125.717" y1="7.91821" x2="125.717" y2="261" stroke="url(#paint4_linear_1913_10740)" stroke-width="2"/>
<line x1="62.3848" y1="7.91821" x2="62.3848" y2="261" stroke="url(#paint5_linear_1913_10740)" stroke-width="2"/>
<line x1="207.562" y1="7.91821" x2="207.562" y2="261" stroke="url(#paint6_linear_1913_10740)" stroke-width="2"/>
<line x1="270.898" y1="7.91821" x2="270.898" y2="261" stroke="url(#paint7_linear_1913_10740)" stroke-width="2"/>
<line x1="313.742" y1="95.8845" x2="-0.00140381" y2="95.8845" stroke="url(#paint8_linear_1913_10740)" stroke-width="2"/>
<line x1="303.023" y1="35.3013" x2="11.6901" y2="35.3013" stroke="url(#paint9_linear_1913_10740)" stroke-width="2"/>
<line x1="305.949" y1="233.663" x2="8.76971" y2="233.663" stroke="url(#paint10_linear_1913_10740)" stroke-width="2"/>
<line x1="297.18" y1="165.262" x2="17.5386" y2="165.262" stroke="url(#paint11_linear_1913_10740)" stroke-width="2"/>
<rect x="285.486" y="115.405" width="31.1795" height="31.2688" rx="5.6" fill="white" stroke="url(#paint12_linear_1913_10740)" stroke-width="1.6"/>
<g clip-path="url(#clip1_1913_10740)">
<path d="M306.632 123.085H309.152L303.647 129.395L310.124 137.982H305.052L301.08 132.774L296.536 137.982H294.014L299.903 131.233L293.689 123.085H298.889L302.48 127.845L306.632 123.085ZM305.748 136.47H307.144L298.131 124.518H296.632L305.748 136.47Z" fill="#0A5F59"/>
</g>
<rect x="15.5898" y="115.405" width="31.1795" height="31.2688" rx="5.6" fill="white" stroke="url(#paint13_linear_1913_10740)" stroke-width="1.6"/>
<g clip-path="url(#clip2_1913_10740)">
<path d="M30.9419 122.707C33.6494 122.707 33.9701 122.719 35.0348 122.766C36.0244 122.81 36.5588 122.977 36.9151 123.116C37.3861 123.298 37.7265 123.521 38.0788 123.874C38.4351 124.231 38.6528 124.569 38.8348 125.041C38.9734 125.398 39.1396 125.938 39.1832 126.926C39.2307 127.998 39.2426 128.32 39.2426 131.031C39.2426 133.746 39.2307 134.068 39.1832 135.136C39.1396 136.128 38.9734 136.664 38.8348 137.021C38.6528 137.494 38.4311 137.835 38.0788 138.188C37.7226 138.546 37.3861 138.764 36.9151 138.947C36.5588 139.086 36.0205 139.252 35.0348 139.296C33.9661 139.344 33.6455 139.356 30.9419 139.356C28.2344 139.356 27.9138 139.344 26.849 139.296C25.8594 139.252 25.3251 139.086 24.9688 138.947C24.4978 138.764 24.1573 138.542 23.8051 138.188C23.4488 137.831 23.2311 137.494 23.049 137.021C22.9105 136.664 22.7442 136.124 22.7007 135.136C22.6532 134.064 22.6413 133.742 22.6413 131.031C22.6413 128.316 22.6532 127.994 22.7007 126.926C22.7442 125.934 22.9105 125.398 23.049 125.041C23.2311 124.569 23.4528 124.227 23.8051 123.874C24.1613 123.517 24.4978 123.298 24.9688 123.116C25.3251 122.977 25.8634 122.81 26.849 122.766C27.9138 122.719 28.2344 122.707 30.9419 122.707ZM30.9419 120.877C28.1909 120.877 27.8465 120.889 26.7659 120.936C25.6892 120.984 24.949 121.159 24.3078 121.409C23.6388 121.671 23.0728 122.016 22.5107 122.584C21.9446 123.147 21.6003 123.715 21.339 124.382C21.0896 125.029 20.9155 125.767 20.868 126.847C20.8205 127.935 20.8086 128.28 20.8086 131.039C20.8086 133.798 20.8205 134.143 20.868 135.227C20.9155 136.307 21.0896 137.049 21.339 137.692C21.6003 138.363 21.9446 138.931 22.5107 139.494C23.0728 140.058 23.6388 140.407 24.3038 140.666C24.949 140.916 25.6853 141.09 26.7619 141.138C27.8426 141.186 28.1869 141.197 30.938 141.197C33.689 141.197 34.0334 141.186 35.114 141.138C36.1907 141.09 36.9309 140.916 37.5721 140.666C38.2371 140.407 38.8032 140.058 39.3653 139.494C39.9273 138.931 40.2757 138.363 40.533 137.696C40.7823 137.049 40.9565 136.311 41.004 135.231C41.0515 134.147 41.0634 133.802 41.0634 131.043C41.0634 128.284 41.0515 127.939 41.004 126.855C40.9565 125.775 40.7823 125.033 40.533 124.39C40.2836 123.715 39.9392 123.147 39.3732 122.584C38.8111 122.02 38.2451 121.671 37.5801 121.413C36.9348 121.163 36.1986 120.988 35.1219 120.94C34.0373 120.889 33.693 120.877 30.9419 120.877Z" fill="#0A5F59"/>
<path d="M30.9415 125.819C28.0678 125.819 25.7363 128.157 25.7363 131.039C25.7363 133.921 28.0678 136.259 30.9415 136.259C33.8153 136.259 36.1467 133.921 36.1467 131.039C36.1467 128.157 33.8153 125.819 30.9415 125.819ZM30.9415 134.425C29.0772 134.425 27.5651 132.909 27.5651 131.039C27.5651 129.169 29.0772 127.653 30.9415 127.653C32.8059 127.653 34.318 129.169 34.318 131.039C34.318 132.909 32.8059 134.425 30.9415 134.425Z" fill="#0A5F59"/>
<path d="M37.5691 125.613C37.5691 126.287 37.0228 126.831 36.3539 126.831C35.681 126.831 35.1387 126.283 35.1387 125.613C35.1387 124.938 35.6849 124.394 36.3539 124.394C37.0228 124.394 37.5691 124.942 37.5691 125.613Z" fill="#0A5F59"/>
</g>
<defs>
<linearGradient id="paint0_linear_1913_10740" x1="242.616" y1="46.0271" x2="242.616" y2="85.1131" gradientUnits="userSpaceOnUse">
<stop stop-color="#E7EDEF" stop-opacity="0.6"/>
<stop offset="1" stop-color="#E7EDEF"/>
</linearGradient>
<linearGradient id="paint1_linear_1913_10740" x1="242.615" y1="186.737" x2="242.615" y2="218.005" gradientUnits="userSpaceOnUse">
<stop stop-color="#E7EDEF" stop-opacity="0.6"/>
<stop offset="1" stop-color="#E7EDEF"/>
</linearGradient>
<linearGradient id="paint2_linear_1913_10740" x1="94.5126" y1="46.0271" x2="94.5126" y2="85.1131" gradientUnits="userSpaceOnUse">
<stop stop-color="#E7EDEF" stop-opacity="0.6"/>
<stop offset="1" stop-color="#E7EDEF"/>
</linearGradient>
<linearGradient id="paint3_linear_1913_10740" x1="95.4872" y1="178.919" x2="95.4872" y2="218.005" gradientUnits="userSpaceOnUse">
<stop stop-color="#E7EDEF" stop-opacity="0.6"/>
<stop offset="1" stop-color="#E7EDEF"/>
</linearGradient>
<linearGradient id="paint4_linear_1913_10740" x1="124.717" y1="134.459" x2="123.717" y2="134.459" gradientUnits="userSpaceOnUse">
<stop stop-color="#E7EDEF" stop-opacity="0.6"/>
<stop offset="1" stop-color="#E7EDEF"/>
</linearGradient>
<linearGradient id="paint5_linear_1913_10740" x1="61.3848" y1="134.459" x2="60.3848" y2="134.459" gradientUnits="userSpaceOnUse">
<stop stop-color="#E7EDEF" stop-opacity="0.6"/>
<stop offset="1" stop-color="#E7EDEF"/>
</linearGradient>
<linearGradient id="paint6_linear_1913_10740" x1="206.562" y1="134.459" x2="205.562" y2="134.459" gradientUnits="userSpaceOnUse">
<stop stop-color="#E7EDEF" stop-opacity="0.6"/>
<stop offset="1" stop-color="#E7EDEF"/>
</linearGradient>
<linearGradient id="paint7_linear_1913_10740" x1="269.898" y1="134.459" x2="268.898" y2="134.459" gradientUnits="userSpaceOnUse">
<stop stop-color="#E7EDEF" stop-opacity="0.6"/>
<stop offset="1" stop-color="#E7EDEF"/>
</linearGradient>
<linearGradient id="paint8_linear_1913_10740" x1="156.87" y1="94.8845" x2="156.87" y2="93.8845" gradientUnits="userSpaceOnUse">
<stop stop-color="#E7EDEF" stop-opacity="0.6"/>
<stop offset="1" stop-color="#E7EDEF"/>
</linearGradient>
<linearGradient id="paint9_linear_1913_10740" x1="157.357" y1="34.3013" x2="157.357" y2="33.3013" gradientUnits="userSpaceOnUse">
<stop stop-color="#E7EDEF" stop-opacity="0.6"/>
<stop offset="1" stop-color="#E7EDEF"/>
</linearGradient>
<linearGradient id="paint10_linear_1913_10740" x1="157.359" y1="232.663" x2="157.359" y2="231.663" gradientUnits="userSpaceOnUse">
<stop stop-color="#E7EDEF" stop-opacity="0.6"/>
<stop offset="1" stop-color="#E7EDEF"/>
</linearGradient>
<linearGradient id="paint11_linear_1913_10740" x1="157.359" y1="164.262" x2="157.359" y2="163.262" gradientUnits="userSpaceOnUse">
<stop stop-color="#E7EDEF" stop-opacity="0.6"/>
<stop offset="1" stop-color="#E7EDEF"/>
</linearGradient>
<linearGradient id="paint12_linear_1913_10740" x1="301.076" y1="115.405" x2="301.076" y2="146.673" gradientUnits="userSpaceOnUse">
<stop stop-color="#E7EDEF" stop-opacity="0.6"/>
<stop offset="1" stop-color="#E7EDEF"/>
</linearGradient>
<linearGradient id="paint13_linear_1913_10740" x1="31.1796" y1="115.405" x2="31.1796" y2="146.673" gradientUnits="userSpaceOnUse">
<stop stop-color="#E7EDEF" stop-opacity="0.6"/>
<stop offset="1" stop-color="#E7EDEF"/>
</linearGradient>
<clipPath id="clip0_1913_10740">
<rect width="26.3077" height="26.383" fill="white" transform="translate(82.8203 185.76)"/>
</clipPath>
<clipPath id="clip1_1913_10740">
<rect width="17.9282" height="17.9796" fill="white" transform="translate(292.943 121.658)"/>
</clipPath>
<clipPath id="clip2_1913_10740">
<rect width="20.2667" height="20.3247" fill="white" transform="translate(20.8086 120.877)"/>
</clipPath>
</defs>
</svg>
