<svg width="60" height="60" viewBox="0 0 60 60" fill="none" xmlns="http://www.w3.org/2000/svg">
<path d="M0 12C0 5.37258 5.37258 0 12 0H48C54.6274 0 60 5.37258 60 12V48C60 54.6274 54.6274 60 48 60H12C5.37258 60 0 54.6274 0 48V12Z" fill="url(#paint0_linear_1919_10202)"/>
<path d="M17.4 18H42.6C42.9713 18 43.3274 18.1405 43.59 18.3905C43.8525 18.6406 44 18.9797 44 19.3333V40.6667C44 41.0203 43.8525 41.3594 43.59 41.6095C43.3274 41.8595 42.9713 42 42.6 42H17.4C17.0287 42 16.6726 41.8595 16.4101 41.6095C16.1475 41.3594 16 41.0203 16 40.6667V19.3333C16 18.9797 16.1475 18.6406 16.4101 18.3905C16.6726 18.1405 17.0287 18 17.4 18ZM23 31.3333V36.6667H25.8V31.3333H23ZM28.6 23.3333V36.6667H31.4V23.3333H28.6ZM34.2 27.3333V36.6667H37V27.3333H34.2Z" fill="#0A5F59"/>
<defs>
<linearGradient id="paint0_linear_1919_10202" x1="60" y1="57.4286" x2="-2.01408" y2="54.488" gradientUnits="userSpaceOnUse">
<stop stop-color="#FDCF6E"/>
<stop offset="1" stop-color="#FDC349"/>
</linearGradient>
</defs>
</svg>
