<svg width="60" height="60" viewBox="0 0 60 60" fill="none" xmlns="http://www.w3.org/2000/svg">
<rect width="60" height="60" rx="12" fill="url(#paint0_linear_1919_10163)"/>
<path d="M41.5125 31.2394C40.1498 30.6817 38.6782 30.5814 37.2682 30.9499C35.8581 31.3184 34.5673 32.1408 33.545 33.3217C32.5228 34.5027 31.8109 35.994 31.4919 37.623C31.1729 39.252 31.2598 40.952 31.7425 42.5263H17.2756C16.9373 42.5263 16.6128 42.3711 16.3736 42.0947C16.1344 41.8183 16 41.4435 16 41.0526V17.4737C16 17.0828 16.1344 16.708 16.3736 16.4316C16.6128 16.1553 16.9373 16 17.2756 16H40.2369C40.5752 16 40.8997 16.1553 41.1389 16.4316C41.3781 16.708 41.5125 17.0828 41.5125 17.4737V31.2394ZM28.8328 28.796L20.6535 20.7718L19.0015 23.0177L28.8494 32.6777L38.5199 23.0103L36.8514 20.7806L28.8328 28.796ZM37.6856 44L33.175 38.7891L34.98 36.7053L37.6856 39.8324L42.1963 34.6215L44 36.7053L37.6856 44Z" fill="#0A5F59"/>
<defs>
<linearGradient id="paint0_linear_1919_10163" x1="60" y1="57.4286" x2="-2.01408" y2="54.488" gradientUnits="userSpaceOnUse">
<stop stop-color="#FDCF6E"/>
<stop offset="1" stop-color="#FDC349"/>
</linearGradient>
</defs>
</svg>
