<svg width="28" height="28" viewBox="0 0 28 28" fill="none" xmlns="http://www.w3.org/2000/svg">
<g clip-path="url(#clip0_1701_13415)">
<path d="M13.667 0C21.2147 0.000176265 27.333 6.11921 27.333 13.667C27.3328 21.2146 21.2146 27.3328 13.667 27.333C6.11921 27.333 0.000176276 21.2147 0 13.667C0 6.1191 6.1191 0 13.667 0ZM15.3691 5.69434C13.1052 5.69434 11.627 7.06631 11.627 9.54883V11.7314H9.11133V14.5957H11.627V21.5186C12.1319 21.5979 12.6486 21.6387 13.1748 21.6387C13.7011 21.6387 14.2177 21.5979 14.7227 21.5186V14.5957H17.0312L17.4707 11.7314H14.7227V9.87402C14.7227 9.09046 15.1057 8.32637 16.3359 8.32617H17.5869V5.8877C17.5869 5.8877 16.4527 5.69436 15.3691 5.69434Z" fill="#FDCF6E"/>
</g>
<defs>
<clipPath id="clip0_1701_13415">
<rect width="27.3333" height="27.3333" rx="13.6667" fill="white"/>
</clipPath>
</defs>
</svg>
