<svg width="28" height="28" viewBox="0 0 28 28" fill="none" xmlns="http://www.w3.org/2000/svg">
<g clip-path="url(#clip0_1701_13417)">
<path d="M13.7764 0C21.3241 0.000176265 27.4424 6.11921 27.4424 13.667C27.4422 21.2146 21.324 27.3328 13.7764 27.333C6.22858 27.333 0.109551 21.2147 0.109375 13.667C0.109375 6.1191 6.22848 0 13.7764 0ZM13.7754 5.69434C11.6111 5.69434 11.3394 5.70384 10.4893 5.74121C9.64247 5.77861 9.06006 5.91615 8.55566 6.1123C8.02951 6.31782 7.58372 6.58797 7.1416 7.0332C6.69633 7.47537 6.42623 7.92123 6.2207 8.44434C6.02453 8.95188 5.887 9.53104 5.84961 10.3779C5.81224 11.2312 5.80273 11.5027 5.80273 13.667C5.80274 15.8311 5.81224 16.1021 5.84961 16.9521C5.88698 17.7991 6.02454 18.3813 6.2207 18.8857C6.4262 19.4119 6.69644 19.8577 7.1416 20.2998C7.58381 20.742 8.02956 21.0163 8.55273 21.2188C9.06027 21.4149 9.63948 21.5515 10.4863 21.5889C11.3365 21.6262 11.6081 21.6357 13.7725 21.6357C15.9364 21.6357 16.2075 21.6262 17.0576 21.5889C17.9045 21.5515 18.4868 21.4149 18.9912 21.2188C19.5144 21.0163 19.9601 20.742 20.4023 20.2998C20.8443 19.8578 21.1179 19.4125 21.3203 18.8896C21.5165 18.382 21.654 17.8021 21.6914 16.9551C21.7288 16.1051 21.7383 15.834 21.7383 13.6699C21.7383 11.5058 21.7288 11.2347 21.6914 10.3848C21.654 9.53772 21.5165 8.95469 21.3203 8.4502C21.1241 7.921 20.8534 7.47528 20.4082 7.0332C19.9662 6.59129 19.5209 6.31759 18.998 6.11523C18.4904 5.91904 17.9105 5.78151 17.0635 5.74414C16.2104 5.70367 15.9393 5.69434 13.7754 5.69434ZM13.7754 7.12988C15.9052 7.12988 16.1575 7.13939 16.9951 7.17676C17.7737 7.21101 18.1943 7.34218 18.4746 7.45117C18.845 7.59439 19.1126 7.76885 19.3896 8.0459C19.6698 8.32606 19.8412 8.59059 19.9844 8.96094C20.0934 9.2412 20.2245 9.66506 20.2588 10.4404C20.2962 11.2812 20.3057 11.5336 20.3057 13.6602C20.3057 15.7902 20.2962 16.0432 20.2588 16.8809C20.2245 17.659 20.0933 18.0791 19.9844 18.3594C19.8411 18.73 19.6668 18.9982 19.3896 19.2754C19.1095 19.5555 18.845 19.7269 18.4746 19.8701C18.1943 19.9791 17.7705 20.1103 16.9951 20.1445C16.1544 20.1819 15.9021 20.1904 13.7754 20.1904C11.6453 20.1904 11.3924 20.1819 10.5547 20.1445C9.77662 20.1103 9.35639 19.9791 9.07617 19.8701C8.70559 19.7269 8.43732 19.5525 8.16016 19.2754C7.87993 18.9951 7.70867 18.7299 7.56543 18.3594C7.45648 18.0791 7.32625 17.6557 7.29199 16.8809C7.25462 16.04 7.24512 15.7871 7.24512 13.6602C7.24512 11.5304 7.25462 11.2781 7.29199 10.4404C7.32626 9.66196 7.45644 9.2412 7.56543 8.96094C7.70863 8.59057 7.88317 8.32293 8.16016 8.0459C8.44043 7.76563 8.70559 7.59442 9.07617 7.45117C9.35639 7.34221 9.77968 7.21104 10.5547 7.17676C11.3924 7.13939 11.6453 7.12988 13.7754 7.12988ZM13.7754 9.57129C11.5145 9.57129 9.67969 11.4061 9.67969 13.667C9.67981 15.9278 11.5146 17.7617 13.7754 17.7617C16.0361 17.7616 17.87 15.9277 17.8701 13.667C17.8701 11.4062 16.0362 9.57141 13.7754 9.57129ZM13.7754 11.0107C15.2421 11.0109 16.4316 12.2003 16.4316 13.667C16.4315 15.1336 15.242 16.3231 13.7754 16.3232C12.3087 16.3232 11.1193 15.1337 11.1191 13.667C11.1191 12.2002 12.3086 11.0107 13.7754 11.0107ZM18.0322 8.4541C17.5059 8.4541 17.0762 8.88075 17.0762 9.41016C17.0763 9.93636 17.5029 10.3662 18.0322 10.3662C18.5584 10.3662 18.9882 9.93947 18.9883 9.41016C18.9883 8.88387 18.5585 8.45411 18.0322 8.4541Z" fill="#FDCF6E"/>
</g>
<defs>
<clipPath id="clip0_1701_13417">
<rect x="0.109375" width="27.3333" height="27.3333" rx="13.6667" fill="white"/>
</clipPath>
</defs>
</svg>
