<svg width="28" height="28" viewBox="0 0 28 28" fill="none" xmlns="http://www.w3.org/2000/svg">
<path d="M14.2217 0C21.7694 0.000176265 27.8877 6.11921 27.8877 13.667C27.8875 21.2146 21.7693 27.3328 14.2217 27.333C6.6739 27.333 0.554864 21.2147 0.554688 13.667C0.554688 6.1191 6.67379 0 14.2217 0ZM6.50977 9.83984V20.4688H9.81543V9.83984H6.50977ZM18.2285 9.5752C17.6009 9.5524 16.9781 9.69756 16.4277 10C15.8776 10.3024 15.4197 10.7483 15.1025 11.29H15.0576V9.8418H11.8896V20.4688H15.1895L15.1934 14.9531C15.229 13.6633 15.5614 12.4825 17.1719 12.4824C18.6666 12.4824 18.8634 13.7184 18.8857 14.8545L18.8916 20.4688H22.1895L22.1934 14.6387C22.1934 11.7761 21.5743 9.57539 18.2285 9.5752ZM8.16504 4.55566C7.65691 4.55567 7.16985 4.75789 6.81055 5.11719C6.45131 5.47648 6.24902 5.9636 6.24902 6.47168C6.24908 6.97974 6.45129 7.46692 6.81055 7.82617C7.16984 8.18541 7.65696 8.38769 8.16504 8.3877C8.67312 8.3877 9.16024 8.18541 9.51953 7.82617C9.87879 7.46692 10.081 6.97974 10.0811 6.47168C10.0811 5.96359 9.87877 5.47648 9.51953 5.11719C9.16023 4.75788 8.67317 4.55566 8.16504 4.55566Z" fill="#FDCF6E"/>
</svg>
