<svg width="339" height="258" viewBox="0 0 339 258" fill="none" xmlns="http://www.w3.org/2000/svg">
<rect x="0.0917969" width="338.148" height="258" rx="12" fill="#FAFAFA"/>
<g opacity="0.5">
<line x1="129.191" y1="7.73035" x2="129.191" y2="258" stroke="url(#paint0_linear_1913_10498)" stroke-width="2"/>
<line x1="67.9707" y1="7.73035" x2="67.9707" y2="258" stroke="url(#paint1_linear_1913_10498)" stroke-width="2"/>
<line x1="208.314" y1="7.73035" x2="208.314" y2="258" stroke="url(#paint2_linear_1913_10498)" stroke-width="2"/>
<line x1="269.539" y1="7.73035" x2="269.539" y2="258" stroke="url(#paint3_linear_1913_10498)" stroke-width="2"/>
<line x1="310.924" y1="94.7303" x2="7.62634" y2="94.7303" stroke="url(#paint4_linear_1913_10498)" stroke-width="2"/>
<line x1="300.564" y1="34.8202" x2="18.9311" y2="34.8202" stroke="url(#paint5_linear_1913_10498)" stroke-width="2"/>
<line x1="303.389" y1="230.978" x2="16.1038" y2="230.978" stroke="url(#paint6_linear_1913_10498)" stroke-width="2"/>
<line x1="294.912" y1="163.337" x2="24.5817" y2="163.337" stroke="url(#paint7_linear_1913_10498)" stroke-width="2"/>
</g>
<rect x="33.0605" y="21.2584" width="37.6767" height="38.6517" rx="7" fill="white" stroke="url(#paint8_linear_1913_10498)" stroke-width="2"/>
<g clip-path="url(#clip0_1913_10498)">
<path d="M56.7023 38.0427C57.4031 38.3929 58.1968 38.4965 58.9608 38.3377V46.3821C58.9608 46.5743 58.8864 46.7586 58.7539 46.8945C58.6214 47.0305 58.4417 47.1068 58.2544 47.1068H45.5385C45.3511 47.1068 45.1714 47.0305 45.0389 46.8945C44.9065 46.7586 44.832 46.5743 44.832 46.3821V34.7866C44.832 34.5944 44.9065 34.41 45.0389 34.2741C45.1714 34.1382 45.3511 34.0619 45.5385 34.0619H54.7928C54.7462 34.2959 54.7222 34.5387 54.7222 34.7866C54.721 35.6476 55.0199 36.4807 55.5649 37.1354L51.9395 40.3546L47.4084 36.4085L46.4943 37.513L51.948 42.2635L56.7023 38.0427ZM58.2544 36.9607C57.976 36.9607 57.7005 36.9045 57.4433 36.7952C57.1862 36.686 56.9526 36.5258 56.7558 36.3239C56.559 36.1221 56.4029 35.8824 56.2964 35.6186C56.1899 35.3548 56.135 35.0721 56.135 34.7866C56.135 34.5011 56.1899 34.2184 56.2964 33.9546C56.4029 33.6908 56.559 33.4511 56.7558 33.2492C56.9526 33.0473 57.1862 32.8872 57.4433 32.7779C57.7005 32.6687 57.976 32.6124 58.2544 32.6124C58.8164 32.6124 59.3555 32.8415 59.7529 33.2492C60.1504 33.657 60.3737 34.21 60.3737 34.7866C60.3737 35.3632 60.1504 35.9162 59.7529 36.3239C59.3555 36.7317 58.8164 36.9607 58.2544 36.9607Z" fill="#0A5F59"/>
</g>
<rect x="287.377" y="198.09" width="37.6767" height="38.6517" rx="7" fill="white" stroke="url(#paint9_linear_1913_10498)" stroke-width="2"/>
<g clip-path="url(#clip1_1913_10498)">
<path d="M309.747 210.893H312.573C312.76 210.893 312.94 210.97 313.072 211.106C313.205 211.241 313.279 211.426 313.279 211.618V223.214C313.279 223.406 313.205 223.59 313.072 223.726C312.94 223.862 312.76 223.938 312.573 223.938H299.857C299.669 223.938 299.49 223.862 299.357 223.726C299.225 223.59 299.15 223.406 299.15 223.214V211.618C299.15 211.426 299.225 211.241 299.357 211.106C299.49 210.97 299.669 210.893 299.857 210.893H302.683V209.444H304.095V210.893H308.334V209.444H309.747V210.893ZM300.563 215.242V222.489H311.866V215.242H300.563ZM301.976 216.691H303.389V218.14H301.976V216.691ZM301.976 219.59H303.389V221.039H301.976V219.59ZM304.802 216.691H310.453V218.14H304.802V216.691ZM304.802 219.59H308.334V221.039H304.802V219.59Z" fill="#0A5F59"/>
</g>
<path d="M54.2523 66.6743L59.5536 76.899L48.067 76.5237L54.2523 66.6743ZM91.9294 134.314L80.942 137.865L83.5014 126.529L91.9294 134.314ZM54.1403 72.461L55.136 72.4365C55.15 73.5789 55.1844 74.8652 55.2509 76.2696L54.2563 76.3295L53.2617 76.3894C53.194 74.9598 53.1589 73.6499 53.1446 72.4855L54.1403 72.461ZM54.5044 80.1814L55.4968 80.0871C55.5961 81.3042 55.7201 82.5777 55.8739 83.896L54.885 84.0252L53.8961 84.1544C53.7393 82.8115 53.6131 81.5147 53.512 80.2756L54.5044 80.1814ZM55.4021 87.853L56.3861 87.6873C56.576 88.9209 56.7932 90.181 57.0413 91.4595L56.064 91.6638L55.0867 91.8681C54.8333 90.5625 54.6117 89.2766 54.4181 88.0187L55.4021 87.853ZM56.8756 95.4282L57.844 95.1828C58.1346 96.4042 58.4552 97.6347 58.8088 98.8676L57.852 99.1573L56.8952 99.447C56.5328 98.1831 56.2045 96.923 55.9072 95.6736L56.8756 95.4282ZM59.0055 102.835L59.9473 102.497C60.3546 103.689 60.7953 104.876 61.2721 106.054L60.3496 106.443L59.4271 106.832C58.9357 105.619 58.4822 104.397 58.0637 103.172L59.0055 102.835ZM61.8982 109.961L62.7962 109.516C63.3379 110.65 63.9169 111.768 64.5355 112.866L63.6685 113.37L62.8014 113.874C62.1597 112.736 61.5602 111.578 61.0002 110.406L61.8982 109.961ZM65.6744 116.642L66.5029 116.074C67.1961 117.114 67.9306 118.128 68.7087 119.111L67.9277 119.743L67.1467 120.376C66.3337 119.349 65.5677 118.291 64.846 117.209L65.6744 116.642ZM70.4351 122.64L71.159 121.942C72.0106 122.841 72.9067 123.705 73.8496 124.529L73.1924 125.291L72.5352 126.053C71.5444 125.188 70.6039 124.281 69.7112 123.338L70.4351 122.64ZM76.1888 127.661L76.7705 126.839C77.7683 127.551 78.8119 128.222 79.9035 128.846L79.4041 129.721L78.9048 130.596C77.7558 129.938 76.6573 129.233 75.6072 128.483L76.1888 127.661ZM82.8082 131.452L83.2214 130.533C84.333 131.031 85.4891 131.485 86.6915 131.891L86.365 132.844L86.0384 133.796C84.7774 133.37 83.5635 132.894 82.395 132.37L82.8082 131.452Z" fill="#0A5F59"/>
<path d="M242.164 136.247L252.208 130.482L252.032 142.077L242.164 136.247ZM305.272 189.393L298.448 180.143L309.875 178.712L305.272 189.393ZM248.364 136.488L248.459 135.487C249.711 135.594 251.115 135.743 252.642 135.953L252.496 136.948L252.35 137.943C250.859 137.738 249.489 137.592 248.268 137.489L248.364 136.488ZM256.597 137.617L256.792 136.63C258.113 136.88 259.491 137.174 260.912 137.521L260.667 138.497L260.422 139.473C259.036 139.135 257.691 138.848 256.402 138.604L256.597 137.617ZM264.657 139.585L264.954 138.622C266.265 139.018 267.6 139.461 268.949 139.955L268.599 140.899L268.249 141.844C266.938 141.363 265.639 140.933 264.361 140.547L264.657 139.585ZM272.443 142.441L272.849 141.519C274.114 142.073 275.383 142.675 276.647 143.33L276.184 144.224L275.72 145.119C274.495 144.484 273.265 143.9 272.038 143.363L272.443 142.441ZM279.8 146.26L280.323 145.399C281.508 146.122 282.683 146.898 283.84 147.728L283.256 148.548L282.673 149.369C281.556 148.568 280.422 147.82 279.276 147.121L279.8 146.26ZM286.526 151.091L287.17 150.318C288.233 151.214 289.275 152.163 290.289 153.169L289.587 153.889L288.884 154.609C287.909 153.642 286.906 152.728 285.882 151.865L286.526 151.091ZM292.411 156.932L293.169 156.272C294.072 157.33 294.945 158.442 295.784 159.609L294.975 160.204L294.166 160.8C293.36 159.678 292.521 158.61 291.653 157.593L292.411 156.932ZM297.261 163.682L298.115 163.155C298.829 164.346 299.509 165.587 300.15 166.881L299.258 167.339L298.366 167.796C297.749 166.55 297.095 165.355 296.407 164.21L297.261 163.682ZM300.963 171.143L301.886 170.755C302.404 172.038 302.886 173.367 303.328 174.744L302.381 175.064L301.433 175.384C301.005 174.053 300.54 172.769 300.04 171.531L300.963 171.143ZM303.522 179.075L304.488 178.819C304.821 180.158 305.119 181.537 305.38 182.957L304.401 183.152L303.421 183.346C303.168 181.966 302.878 180.628 302.556 179.33L303.522 179.075Z" fill="#0A5F59"/>
<rect x="101.485" y="78.8781" width="134.614" height="118.727" rx="3.04234" fill="white" stroke="#0A5F59" stroke-width="1.21694"/>
<g filter="url(#filter0_d_1913_10498)">
<path d="M103.17 83.0555C103.17 81.7113 104.26 80.6216 105.604 80.6216H232.555C233.9 80.6216 234.989 81.7113 234.989 83.0555V101.788H103.17V83.0555Z" fill="#0A5F59"/>
</g>
<path d="M145.425 93.8667C144.863 93.8667 144.374 93.7673 143.96 93.5685C143.551 93.3698 143.21 93.1114 142.937 92.7933C142.671 92.4696 142.469 92.1232 142.333 91.7541C142.202 91.3793 142.137 91.0186 142.137 90.6722V90.4848C142.137 90.1043 142.205 89.7267 142.341 89.3519C142.477 88.9714 142.682 88.6278 142.954 88.3211C143.233 88.0144 143.576 87.7702 143.985 87.5885C144.394 87.4011 144.874 87.3074 145.425 87.3074C145.97 87.3074 146.447 87.4011 146.856 87.5885C147.265 87.7702 147.606 88.0144 147.878 88.3211C148.156 88.6278 148.364 88.9714 148.5 89.3519C148.636 89.7267 148.705 90.1043 148.705 90.4848V90.6722C148.705 91.0186 148.636 91.3793 148.5 91.7541C148.369 92.1232 148.168 92.4696 147.895 92.7933C147.628 93.1114 147.288 93.3698 146.873 93.5685C146.464 93.7673 145.981 93.8667 145.425 93.8667ZM145.425 92.7422C145.743 92.7422 146.027 92.6854 146.277 92.5719C146.532 92.4583 146.748 92.3021 146.924 92.1033C147.106 91.8989 147.242 91.6689 147.333 91.4133C147.43 91.1521 147.478 90.8767 147.478 90.587C147.478 90.2747 147.43 89.9879 147.333 89.7267C147.242 89.4654 147.106 89.2383 146.924 89.0452C146.748 88.8521 146.532 88.7016 146.277 88.5937C146.021 88.4858 145.737 88.4318 145.425 88.4318C145.107 88.4318 144.82 88.4858 144.564 88.5937C144.309 88.7016 144.09 88.8521 143.909 89.0452C143.733 89.2383 143.596 89.4654 143.5 89.7267C143.409 89.9879 143.363 90.2747 143.363 90.587C143.363 90.8767 143.409 91.1521 143.5 91.4133C143.596 91.6689 143.733 91.8989 143.909 92.1033C144.09 92.3021 144.309 92.4583 144.564 92.5719C144.82 92.6854 145.107 92.7422 145.425 92.7422ZM149.78 95.4085V89.0793H150.717V91.0726L150.572 91.0641C150.595 90.5927 150.691 90.198 150.862 89.88C151.038 89.562 151.271 89.3263 151.56 89.173C151.85 89.0139 152.174 88.9344 152.531 88.9344C152.861 88.9344 153.156 88.9941 153.417 89.1133C153.684 89.2326 153.911 89.4001 154.099 89.6159C154.292 89.8317 154.439 90.0844 154.542 90.3741C154.644 90.658 154.695 90.9647 154.695 91.2941V91.473C154.695 91.808 154.644 92.1204 154.542 92.41C154.445 92.694 154.3 92.9467 154.107 93.1682C153.92 93.384 153.693 93.5543 153.426 93.6793C153.159 93.7985 152.861 93.8582 152.531 93.8582C152.185 93.8582 151.867 93.7872 151.577 93.6452C151.293 93.4975 151.063 93.2732 150.887 92.9722C150.711 92.6656 150.612 92.2709 150.589 91.7882L150.964 92.3589V95.4085H149.78ZM152.233 92.8615C152.489 92.8615 152.71 92.799 152.898 92.6741C153.091 92.5491 153.241 92.3759 153.349 92.1545C153.457 91.9273 153.511 91.6717 153.511 91.3878C153.511 91.0925 153.457 90.8369 153.349 90.6211C153.241 90.4053 153.091 90.2378 152.898 90.1185C152.71 89.9936 152.489 89.9311 152.233 89.9311C152 89.9311 151.785 89.9822 151.586 90.0844C151.393 90.1867 151.234 90.3372 151.109 90.5359C150.989 90.7347 150.93 90.9732 150.93 91.2515V91.5922C150.93 91.8591 150.992 92.0863 151.117 92.2737C151.242 92.4611 151.404 92.6059 151.603 92.7082C151.802 92.8104 152.012 92.8615 152.233 92.8615ZM157.806 93.8667C157.409 93.8667 157.059 93.7985 156.758 93.6622C156.463 93.5259 156.216 93.3442 156.017 93.1171C155.824 92.8842 155.677 92.6258 155.574 92.3419C155.478 92.0579 155.43 91.7683 155.43 91.473V91.3111C155.43 91.0045 155.478 90.7091 155.574 90.4252C155.677 90.1356 155.824 89.88 156.017 89.6585C156.216 89.4314 156.46 89.2525 156.75 89.1218C157.04 88.9856 157.375 88.9174 157.755 88.9174C158.255 88.9174 158.672 89.0281 159.007 89.2496C159.348 89.4654 159.604 89.7522 159.774 90.11C159.944 90.4621 160.03 90.8426 160.03 91.2515V91.6774H155.932V90.9533H159.288L158.922 91.3111C158.922 91.0158 158.88 90.7631 158.794 90.553C158.709 90.3428 158.579 90.181 158.402 90.0674C158.232 89.9538 158.016 89.897 157.755 89.897C157.494 89.897 157.272 89.9567 157.091 90.0759C156.909 90.1952 156.77 90.3684 156.673 90.5956C156.582 90.817 156.537 91.084 156.537 91.3963C156.537 91.6859 156.582 91.9443 156.673 92.1715C156.764 92.393 156.903 92.569 157.091 92.6996C157.278 92.8246 157.517 92.8871 157.806 92.8871C158.096 92.8871 158.332 92.8303 158.513 92.7167C158.695 92.5974 158.811 92.4526 158.862 92.2822H159.953C159.885 92.6003 159.754 92.8785 159.561 93.1171C159.368 93.3556 159.121 93.5401 158.82 93.6708C158.525 93.8014 158.187 93.8667 157.806 93.8667ZM161.019 93.7048V89.0793H161.956V91.0641H161.871C161.871 90.5927 161.933 90.2009 162.058 89.8885C162.183 89.5705 162.367 89.332 162.612 89.173C162.862 89.0139 163.171 88.9344 163.54 88.9344H163.591C164.142 88.9344 164.56 89.1133 164.844 89.4711C165.127 89.8232 165.269 90.3514 165.269 91.0556V93.7048H164.085V90.9533C164.085 90.6694 164.003 90.4394 163.838 90.2633C163.679 90.0873 163.458 89.9993 163.174 89.9993C162.884 89.9993 162.649 90.0901 162.467 90.2719C162.291 90.4479 162.203 90.6864 162.203 90.9874V93.7048H161.019ZM168.475 93.7048V87.4863H170.127L171.686 91.2004H171.839L173.39 87.4863H175.068V93.7048H173.867V88.3978L174.02 88.4148L172.342 92.4356H171.107L169.42 88.4148L169.582 88.3978V93.7048H168.475ZM178.578 93.8667C178.181 93.8667 177.832 93.7985 177.531 93.6622C177.235 93.5259 176.988 93.3442 176.79 93.1171C176.597 92.8842 176.449 92.6258 176.347 92.3419C176.25 92.0579 176.202 91.7683 176.202 91.473V91.3111C176.202 91.0045 176.25 90.7091 176.347 90.4252C176.449 90.1356 176.597 89.88 176.79 89.6585C176.988 89.4314 177.233 89.2525 177.522 89.1218C177.812 88.9856 178.147 88.9174 178.527 88.9174C179.027 88.9174 179.445 89.0281 179.78 89.2496C180.12 89.4654 180.376 89.7522 180.546 90.11C180.717 90.4621 180.802 90.8426 180.802 91.2515V91.6774H176.704V90.9533H180.061L179.694 91.3111C179.694 91.0158 179.652 90.7631 179.567 90.553C179.481 90.3428 179.351 90.181 179.175 90.0674C179.004 89.9538 178.789 89.897 178.527 89.897C178.266 89.897 178.045 89.9567 177.863 90.0759C177.681 90.1952 177.542 90.3684 177.446 90.5956C177.355 90.817 177.309 91.084 177.309 91.3963C177.309 91.6859 177.355 91.9443 177.446 92.1715C177.536 92.393 177.676 92.569 177.863 92.6996C178.05 92.8246 178.289 92.8871 178.578 92.8871C178.868 92.8871 179.104 92.8303 179.286 92.7167C179.467 92.5974 179.584 92.4526 179.635 92.2822H180.725C180.657 92.6003 180.526 92.8785 180.333 93.1171C180.14 93.3556 179.893 93.5401 179.592 93.6708C179.297 93.8014 178.959 93.8667 178.578 93.8667ZM183.469 93.8496C182.833 93.8496 182.333 93.7162 181.97 93.4493C181.612 93.1767 181.425 92.8019 181.408 92.3248H182.472C182.49 92.4838 182.578 92.6287 182.737 92.7593C182.896 92.8899 183.145 92.9552 183.486 92.9552C183.77 92.9552 183.994 92.9041 184.159 92.8019C184.33 92.6996 184.415 92.5605 184.415 92.3845C184.415 92.2311 184.349 92.109 184.219 92.0182C184.094 91.9273 183.878 91.8677 183.571 91.8393L183.162 91.7967C182.646 91.7399 182.248 91.5922 181.97 91.3537C181.692 91.1152 181.552 90.7972 181.552 90.3996C181.552 90.0816 181.632 89.8147 181.791 89.5989C181.95 89.3831 182.169 89.2212 182.447 89.1133C182.731 88.9997 183.055 88.943 183.418 88.943C183.986 88.943 184.446 89.0679 184.798 89.3178C185.15 89.5677 185.335 89.934 185.352 90.4167H184.287C184.276 90.2577 184.196 90.1214 184.048 90.0078C183.901 89.8942 183.688 89.8374 183.41 89.8374C183.16 89.8374 182.967 89.8857 182.83 89.9822C182.694 90.0788 182.626 90.2037 182.626 90.357C182.626 90.5047 182.68 90.6183 182.788 90.6978C182.901 90.7773 183.083 90.8312 183.333 90.8596L183.742 90.9022C184.287 90.959 184.713 91.1095 185.02 91.3537C185.332 91.5979 185.488 91.9273 185.488 92.3419C185.488 92.6485 185.403 92.9154 185.232 93.1426C185.068 93.3641 184.835 93.5373 184.534 93.6622C184.233 93.7872 183.878 93.8496 183.469 93.8496ZM188.144 93.8496C187.508 93.8496 187.009 93.7162 186.645 93.4493C186.287 93.1767 186.1 92.8019 186.083 92.3248H187.148C187.165 92.4838 187.253 92.6287 187.412 92.7593C187.571 92.8899 187.821 92.9552 188.161 92.9552C188.445 92.9552 188.67 92.9041 188.834 92.8019C189.005 92.6996 189.09 92.5605 189.09 92.3845C189.09 92.2311 189.025 92.109 188.894 92.0182C188.769 91.9273 188.553 91.8677 188.247 91.8393L187.838 91.7967C187.321 91.7399 186.923 91.5922 186.645 91.3537C186.367 91.1152 186.228 90.7972 186.228 90.3996C186.228 90.0816 186.307 89.8147 186.466 89.5989C186.625 89.3831 186.844 89.2212 187.122 89.1133C187.406 88.9997 187.73 88.943 188.093 88.943C188.661 88.943 189.121 89.0679 189.473 89.3178C189.825 89.5677 190.01 89.934 190.027 90.4167H188.962C188.951 90.2577 188.871 90.1214 188.724 90.0078C188.576 89.8942 188.363 89.8374 188.085 89.8374C187.835 89.8374 187.642 89.8857 187.505 89.9822C187.369 90.0788 187.301 90.2037 187.301 90.357C187.301 90.5047 187.355 90.6183 187.463 90.6978C187.576 90.7773 187.758 90.8312 188.008 90.8596L188.417 90.9022C188.962 90.959 189.388 91.1095 189.695 91.3537C190.007 91.5979 190.163 91.9273 190.163 92.3419C190.163 92.6485 190.078 92.9154 189.908 93.1426C189.743 93.3641 189.51 93.5373 189.209 93.6622C188.908 93.7872 188.553 93.8496 188.144 93.8496ZM193.944 93.7048V92.3333H193.748V90.8085C193.748 90.5416 193.683 90.3428 193.552 90.2122C193.422 90.0816 193.22 90.0163 192.947 90.0163C192.805 90.0163 192.635 90.0191 192.436 90.0248C192.237 90.0305 192.036 90.039 191.831 90.0504C191.633 90.0561 191.454 90.0646 191.295 90.0759V89.0707C191.425 89.0594 191.573 89.048 191.738 89.0367C191.902 89.0253 192.07 89.0196 192.24 89.0196C192.416 89.0139 192.581 89.0111 192.734 89.0111C193.211 89.0111 193.606 89.0736 193.918 89.1985C194.237 89.3235 194.475 89.5194 194.634 89.7863C194.799 90.0532 194.881 90.4025 194.881 90.8341V93.7048H193.944ZM192.453 93.8241C192.118 93.8241 191.823 93.7645 191.567 93.6452C191.317 93.5259 191.122 93.3556 190.98 93.1341C190.843 92.9126 190.775 92.6457 190.775 92.3333C190.775 91.9926 190.857 91.7143 191.022 91.4985C191.193 91.2827 191.428 91.1209 191.729 91.013C192.036 90.9051 192.394 90.8511 192.803 90.8511H193.876V91.5582H192.786C192.513 91.5582 192.303 91.6263 192.155 91.7626C192.013 91.8932 191.942 92.0636 191.942 92.2737C191.942 92.4838 192.013 92.6542 192.155 92.7848C192.303 92.9154 192.513 92.9808 192.786 92.9808C192.95 92.9808 193.101 92.9524 193.237 92.8956C193.379 92.8331 193.495 92.7309 193.586 92.5889C193.683 92.4412 193.737 92.2425 193.748 91.9926L194.038 92.3248C194.009 92.6485 193.93 92.9211 193.799 93.1426C193.674 93.3641 193.498 93.5345 193.271 93.6537C193.05 93.7673 192.777 93.8241 192.453 93.8241ZM197.955 95.5278C197.734 95.5278 197.507 95.5193 197.274 95.5022C197.047 95.4852 196.834 95.4625 196.635 95.4341V94.4459C196.839 94.4687 197.058 94.4885 197.291 94.5056C197.524 94.5283 197.742 94.5397 197.947 94.5397C198.327 94.5397 198.634 94.4942 198.867 94.4034C199.105 94.3125 199.279 94.1677 199.386 93.9689C199.5 93.7758 199.557 93.5288 199.557 93.2278V92.3163L199.812 91.737C199.795 92.163 199.707 92.5264 199.548 92.8274C199.389 93.1227 199.174 93.3499 198.901 93.5089C198.628 93.6622 198.313 93.7389 197.955 93.7389C197.637 93.7389 197.348 93.6793 197.086 93.56C196.831 93.4408 196.609 93.2761 196.422 93.0659C196.24 92.8558 196.098 92.6088 195.996 92.3248C195.894 92.0409 195.843 91.737 195.843 91.4133V91.2345C195.843 90.9107 195.894 90.6098 195.996 90.3315C196.104 90.0475 196.254 89.8005 196.448 89.5904C196.641 89.3802 196.871 89.2184 197.138 89.1048C197.404 88.9912 197.7 88.9344 198.024 88.9344C198.404 88.9344 198.733 89.0168 199.012 89.1815C199.296 89.3462 199.517 89.5847 199.676 89.897C199.835 90.2094 199.923 90.5927 199.94 91.047L199.736 91.0811V89.0793H200.673V93.1596C200.673 93.7219 200.576 94.1762 200.383 94.5226C200.19 94.869 199.892 95.1218 199.489 95.2808C199.091 95.4455 198.58 95.5278 197.955 95.5278ZM198.296 92.7252C198.523 92.7252 198.731 92.6741 198.918 92.5719C199.105 92.4696 199.256 92.322 199.369 92.1289C199.483 91.9358 199.54 91.703 199.54 91.4304V91.1322C199.54 90.871 199.48 90.6495 199.361 90.4678C199.247 90.2861 199.097 90.1498 198.909 90.0589C198.722 89.9623 198.518 89.9141 198.296 89.9141C198.046 89.9141 197.825 89.9737 197.632 90.093C197.444 90.2065 197.297 90.3684 197.189 90.5785C197.081 90.7886 197.027 91.0385 197.027 91.3282C197.027 91.6121 197.081 91.8591 197.189 92.0693C197.297 92.2794 197.444 92.4412 197.632 92.5548C197.825 92.6684 198.046 92.7252 198.296 92.7252ZM204.034 93.8667C203.637 93.8667 203.288 93.7985 202.987 93.6622C202.691 93.5259 202.444 93.3442 202.245 93.1171C202.052 92.8842 201.905 92.6258 201.802 92.3419C201.706 92.0579 201.658 91.7683 201.658 91.473V91.3111C201.658 91.0045 201.706 90.7091 201.802 90.4252C201.905 90.1356 202.052 89.88 202.245 89.6585C202.444 89.4314 202.688 89.2525 202.978 89.1218C203.268 88.9856 203.603 88.9174 203.983 88.9174C204.483 88.9174 204.9 89.0281 205.235 89.2496C205.576 89.4654 205.832 89.7522 206.002 90.11C206.173 90.4621 206.258 90.8426 206.258 91.2515V91.6774H202.16V90.9533H205.517L205.15 91.3111C205.15 91.0158 205.108 90.7631 205.022 90.553C204.937 90.3428 204.807 90.181 204.631 90.0674C204.46 89.9538 204.244 89.897 203.983 89.897C203.722 89.897 203.501 89.9567 203.319 90.0759C203.137 90.1952 202.998 90.3684 202.901 90.5956C202.811 90.817 202.765 91.084 202.765 91.3963C202.765 91.6859 202.811 91.9443 202.901 92.1715C202.992 92.393 203.131 92.569 203.319 92.6996C203.506 92.8246 203.745 92.8871 204.034 92.8871C204.324 92.8871 204.56 92.8303 204.741 92.7167C204.923 92.5974 205.04 92.4526 205.091 92.2822H206.181C206.113 92.6003 205.982 92.8785 205.789 93.1171C205.596 93.3556 205.349 93.5401 205.048 93.6708C204.753 93.8014 204.415 93.8667 204.034 93.8667Z" fill="white"/>
<rect x="113.123" y="143.978" width="109.262" height="17.3933" rx="2.43387" fill="#F2FBFB"/>
<path d="M118.117 155.203V154.575H119.606C119.894 154.575 120.115 154.495 120.271 154.335C120.432 154.169 120.512 153.95 120.512 153.677C120.512 153.4 120.434 153.183 120.278 153.028C120.122 152.867 119.899 152.787 119.606 152.787H118.117V152.319H119.504C119.845 152.319 120.144 152.361 120.402 152.443C120.665 152.526 120.87 152.665 121.016 152.86C121.167 153.049 121.242 153.31 121.242 153.641V153.743C121.242 154.055 121.179 154.32 121.052 154.539C120.926 154.753 120.733 154.919 120.475 155.035C120.217 155.147 119.894 155.203 119.504 155.203H118.117ZM117.547 155.203V149.815H118.263V155.203H117.547ZM118.117 152.655V152.188H119.409C119.711 152.188 119.933 152.108 120.074 151.947C120.22 151.781 120.293 151.572 120.293 151.319C120.293 151.061 120.22 150.852 120.074 150.691C119.933 150.525 119.711 150.443 119.409 150.443H118.117V149.815H119.285C119.869 149.815 120.305 149.939 120.592 150.187C120.879 150.431 121.023 150.783 121.023 151.246V151.348C121.023 151.674 120.95 151.935 120.804 152.129C120.658 152.319 120.453 152.456 120.191 152.538C119.933 152.616 119.631 152.655 119.285 152.655H118.117ZM122.408 155.174V151.275H122.963V152.881H122.934C122.934 152.312 123.058 151.896 123.306 151.633C123.559 151.365 123.936 151.231 124.438 151.231H124.569V151.859H124.321C123.932 151.859 123.632 151.964 123.423 152.173C123.214 152.378 123.109 152.675 123.109 153.064V155.174H122.408ZM127.156 155.306C126.815 155.306 126.516 155.247 126.258 155.13C126 155.014 125.781 154.86 125.601 154.67C125.426 154.476 125.292 154.259 125.199 154.021C125.112 153.782 125.068 153.539 125.068 153.29V153.159C125.068 152.911 125.114 152.667 125.207 152.429C125.299 152.185 125.435 151.969 125.616 151.779C125.796 151.584 126.015 151.431 126.273 151.319C126.531 151.202 126.825 151.144 127.156 151.144C127.487 151.144 127.782 151.202 128.04 151.319C128.298 151.431 128.517 151.584 128.697 151.779C128.877 151.969 129.013 152.185 129.106 152.429C129.198 152.667 129.244 152.911 129.244 153.159V153.29C129.244 153.539 129.198 153.782 129.106 154.021C129.018 154.259 128.884 154.476 128.704 154.67C128.529 154.86 128.312 155.014 128.054 155.13C127.796 155.247 127.497 155.306 127.156 155.306ZM127.156 154.678C127.448 154.678 127.697 154.614 127.901 154.488C128.11 154.356 128.269 154.181 128.376 153.962C128.488 153.743 128.544 153.497 128.544 153.225C128.544 152.947 128.488 152.699 128.376 152.48C128.264 152.261 128.103 152.088 127.894 151.961C127.689 151.835 127.443 151.772 127.156 151.772C126.874 151.772 126.628 151.835 126.419 151.961C126.209 152.088 126.049 152.261 125.937 152.48C125.825 152.699 125.769 152.947 125.769 153.225C125.769 153.497 125.822 153.743 125.93 153.962C126.042 154.181 126.2 154.356 126.404 154.488C126.613 154.614 126.864 154.678 127.156 154.678ZM131.362 155.174L132.151 151.407H133.1L134.02 155.174H133.421L132.501 151.421H132.735L131.939 155.174H131.362ZM131.004 155.174V154.619H131.815V155.174H131.004ZM130.844 155.174L129.741 151.275H130.413L131.486 155.174H130.844ZM133.567 155.174V154.619H134.378V155.174H133.567ZM133.896 155.174L134.83 151.275H135.466L134.509 155.174H133.896ZM137.662 155.291C137.15 155.291 136.754 155.181 136.471 154.962C136.194 154.743 136.05 154.444 136.041 154.064H136.698C136.707 154.215 136.783 154.359 136.924 154.495C137.07 154.627 137.316 154.692 137.662 154.692C137.973 154.692 138.212 154.631 138.377 154.51C138.543 154.383 138.625 154.23 138.625 154.05C138.625 153.889 138.565 153.765 138.443 153.677C138.321 153.585 138.124 153.524 137.851 153.495L137.428 153.451C137.058 153.412 136.756 153.303 136.522 153.122C136.289 152.937 136.172 152.679 136.172 152.348C136.172 152.1 136.235 151.888 136.362 151.713C136.488 151.533 136.664 151.397 136.888 151.304C137.111 151.207 137.369 151.158 137.662 151.158C138.1 151.158 138.455 151.256 138.728 151.45C139 151.645 139.141 151.935 139.151 152.319H138.494C138.489 152.163 138.416 152.032 138.275 151.925C138.139 151.813 137.934 151.757 137.662 151.757C137.389 151.757 137.182 151.813 137.041 151.925C136.9 152.037 136.829 152.178 136.829 152.348C136.829 152.494 136.878 152.611 136.975 152.699C137.077 152.787 137.243 152.843 137.472 152.867L137.895 152.911C138.314 152.955 138.65 153.071 138.903 153.261C139.156 153.446 139.283 153.709 139.283 154.05C139.283 154.293 139.212 154.51 139.071 154.7C138.934 154.885 138.745 155.031 138.501 155.138C138.258 155.24 137.978 155.291 137.662 155.291ZM141.956 155.306C141.615 155.306 141.321 155.247 141.072 155.13C140.824 155.014 140.622 154.86 140.466 154.67C140.311 154.476 140.194 154.259 140.116 154.021C140.043 153.782 140.006 153.539 140.006 153.29V153.159C140.006 152.906 140.043 152.66 140.116 152.421C140.194 152.183 140.311 151.969 140.466 151.779C140.622 151.584 140.819 151.431 141.058 151.319C141.301 151.202 141.586 151.144 141.912 151.144C142.336 151.144 142.684 151.236 142.956 151.421C143.234 151.601 143.438 151.835 143.57 152.122C143.706 152.409 143.774 152.716 143.774 153.042V153.356H140.313V152.83H143.263L143.102 153.115C143.102 152.838 143.058 152.599 142.971 152.4C142.883 152.195 142.752 152.037 142.577 151.925C142.401 151.813 142.18 151.757 141.912 151.757C141.635 151.757 141.403 151.82 141.218 151.947C141.038 152.073 140.902 152.246 140.81 152.465C140.722 152.684 140.678 152.937 140.678 153.225C140.678 153.502 140.722 153.753 140.81 153.977C140.902 154.196 141.043 154.371 141.233 154.502C141.423 154.629 141.664 154.692 141.956 154.692C142.263 154.692 142.511 154.624 142.701 154.488C142.895 154.352 143.012 154.193 143.051 154.013H143.708C143.655 154.281 143.548 154.512 143.387 154.707C143.226 154.902 143.024 155.05 142.781 155.152C142.538 155.255 142.263 155.306 141.956 155.306ZM146.62 155.174V151.275H147.321V155.174H146.62ZM146.022 151.83V151.275H147.321V151.83H146.022ZM146.818 150.647C146.662 150.647 146.545 150.606 146.467 150.523C146.394 150.44 146.358 150.336 146.358 150.209C146.358 150.083 146.394 149.978 146.467 149.895C146.545 149.812 146.662 149.771 146.818 149.771C146.973 149.771 147.088 149.812 147.161 149.895C147.239 149.978 147.278 150.083 147.278 150.209C147.278 150.336 147.239 150.44 147.161 150.523C147.088 150.606 146.973 150.647 146.818 150.647ZM150.195 155.218C149.903 155.218 149.65 155.177 149.436 155.094C149.227 155.011 149.064 154.87 148.947 154.67C148.835 154.466 148.779 154.191 148.779 153.845V150.092H149.451V153.933C149.451 154.142 149.507 154.305 149.619 154.422C149.735 154.534 149.899 154.59 150.108 154.59H150.794V155.218H150.195ZM148.107 151.801V151.275H150.794V151.801H148.107ZM153.415 155.306C153.074 155.306 152.779 155.247 152.531 155.13C152.283 155.014 152.081 154.86 151.925 154.67C151.769 154.476 151.652 154.259 151.575 154.021C151.502 153.782 151.465 153.539 151.465 153.29V153.159C151.465 152.906 151.502 152.66 151.575 152.421C151.652 152.183 151.769 151.969 151.925 151.779C152.081 151.584 152.278 151.431 152.516 151.319C152.76 151.202 153.045 151.144 153.371 151.144C153.794 151.144 154.142 151.236 154.415 151.421C154.692 151.601 154.897 151.835 155.028 152.122C155.165 152.409 155.233 152.716 155.233 153.042V153.356H151.772V152.83H154.722L154.561 153.115C154.561 152.838 154.517 152.599 154.429 152.4C154.342 152.195 154.21 152.037 154.035 151.925C153.86 151.813 153.638 151.757 153.371 151.757C153.093 151.757 152.862 151.82 152.677 151.947C152.497 152.073 152.361 152.246 152.268 152.465C152.181 152.684 152.137 152.937 152.137 153.225C152.137 153.502 152.181 153.753 152.268 153.977C152.361 154.196 152.502 154.371 152.692 154.502C152.882 154.629 153.123 154.692 153.415 154.692C153.721 154.692 153.969 154.624 154.159 154.488C154.354 154.352 154.471 154.193 154.51 154.013H155.167C155.113 154.281 155.006 154.512 154.846 154.707C154.685 154.902 154.483 155.05 154.24 155.152C153.996 155.255 153.721 155.306 153.415 155.306ZM156.228 155.174V151.275H156.783V152.947H156.695C156.695 152.568 156.744 152.246 156.841 151.983C156.943 151.716 157.094 151.511 157.294 151.37C157.494 151.229 157.747 151.158 158.053 151.158H158.083C158.389 151.158 158.642 151.229 158.842 151.37C159.046 151.511 159.197 151.716 159.295 151.983C159.392 152.246 159.441 152.568 159.441 152.947H159.236C159.236 152.568 159.287 152.246 159.39 151.983C159.492 151.716 159.643 151.511 159.842 151.37C160.047 151.229 160.302 151.158 160.609 151.158H160.638C160.945 151.158 161.2 151.229 161.405 151.37C161.609 151.511 161.76 151.716 161.857 151.983C161.96 152.246 162.011 152.568 162.011 152.947V155.174H161.31V152.794C161.31 152.477 161.232 152.234 161.076 152.064C160.92 151.888 160.704 151.801 160.426 151.801C160.139 151.801 159.908 151.893 159.733 152.078C159.557 152.258 159.47 152.512 159.47 152.838V155.174H158.769V152.794C158.769 152.477 158.691 152.234 158.535 152.064C158.379 151.888 158.163 151.801 157.885 151.801C157.598 151.801 157.367 151.893 157.192 152.078C157.016 152.258 156.929 152.512 156.929 152.838V155.174H156.228ZM164.572 155.291C164.061 155.291 163.664 155.181 163.382 154.962C163.104 154.743 162.961 154.444 162.951 154.064H163.608C163.618 154.215 163.693 154.359 163.835 154.495C163.981 154.627 164.226 154.692 164.572 154.692C164.884 154.692 165.122 154.631 165.288 154.51C165.453 154.383 165.536 154.23 165.536 154.05C165.536 153.889 165.475 153.765 165.353 153.677C165.232 153.585 165.034 153.524 164.762 153.495L164.338 153.451C163.968 153.412 163.667 153.303 163.433 153.122C163.199 152.937 163.082 152.679 163.082 152.348C163.082 152.1 163.146 151.888 163.272 151.713C163.399 151.533 163.574 151.397 163.798 151.304C164.022 151.207 164.28 151.158 164.572 151.158C165.01 151.158 165.365 151.256 165.638 151.45C165.911 151.645 166.052 151.935 166.062 152.319H165.404C165.4 152.163 165.327 152.032 165.185 151.925C165.049 151.813 164.845 151.757 164.572 151.757C164.299 151.757 164.093 151.813 163.951 151.925C163.81 152.037 163.74 152.178 163.74 152.348C163.74 152.494 163.788 152.611 163.886 152.699C163.988 152.787 164.153 152.843 164.382 152.867L164.806 152.911C165.224 152.955 165.56 153.071 165.813 153.261C166.066 153.446 166.193 153.709 166.193 154.05C166.193 154.293 166.122 154.51 165.981 154.7C165.845 154.885 165.655 155.031 165.412 155.138C165.168 155.24 164.888 155.291 164.572 155.291Z" fill="#232631"/>
<g filter="url(#filter1_d_1913_10498)">
<circle cx="214.476" cy="152.674" r="4.25928" fill="white"/>
</g>
<circle cx="214.476" cy="152.674" r="3.04234" fill="#57CC99"/>
<rect x="113.123" y="167.169" width="109.262" height="17.3933" rx="2.43387" fill="#F2FBFB"/>
<path d="M118.781 178.365L116.934 173.035H117.672L119.329 177.898L118.979 177.723H119.855L119.482 177.898L121.008 173.035H121.724L120.008 178.365H118.781ZM122.705 178.365V174.466H123.406V178.365H122.705ZM122.106 175.021V174.466H123.406V175.021H122.106ZM122.902 173.838C122.746 173.838 122.629 173.797 122.551 173.714C122.478 173.631 122.442 173.527 122.442 173.4C122.442 173.274 122.478 173.169 122.551 173.086C122.629 173.003 122.746 172.962 122.902 172.962C123.058 172.962 123.172 173.003 123.245 173.086C123.323 173.169 123.362 173.274 123.362 173.4C123.362 173.527 123.323 173.631 123.245 173.714C123.172 173.797 123.058 173.838 122.902 173.838ZM126.039 178.482C125.528 178.482 125.131 178.373 124.849 178.153C124.571 177.934 124.428 177.635 124.418 177.255H125.075C125.085 177.406 125.16 177.55 125.301 177.686C125.447 177.818 125.693 177.883 126.039 177.883C126.35 177.883 126.589 177.822 126.754 177.701C126.92 177.574 127.003 177.421 127.003 177.241C127.003 177.08 126.942 176.956 126.82 176.868C126.698 176.776 126.501 176.715 126.229 176.686L125.805 176.642C125.435 176.603 125.133 176.494 124.9 176.313C124.666 176.129 124.549 175.871 124.549 175.54C124.549 175.291 124.613 175.08 124.739 174.904C124.866 174.724 125.041 174.588 125.265 174.495C125.489 174.398 125.747 174.349 126.039 174.349C126.477 174.349 126.832 174.447 127.105 174.641C127.377 174.836 127.519 175.126 127.528 175.51H126.871C126.866 175.355 126.793 175.223 126.652 175.116C126.516 175.004 126.311 174.948 126.039 174.948C125.766 174.948 125.559 175.004 125.418 175.116C125.277 175.228 125.206 175.369 125.206 175.54C125.206 175.686 125.255 175.802 125.353 175.89C125.455 175.978 125.62 176.034 125.849 176.058L126.273 176.102C126.691 176.146 127.027 176.262 127.28 176.452C127.533 176.637 127.66 176.9 127.66 177.241C127.66 177.484 127.589 177.701 127.448 177.891C127.312 178.076 127.122 178.222 126.879 178.329C126.635 178.431 126.355 178.482 126.039 178.482ZM128.866 178.365V174.466H129.567V178.365H128.866ZM128.267 175.021V174.466H129.567V175.021H128.267ZM129.063 173.838C128.907 173.838 128.79 173.797 128.712 173.714C128.639 173.631 128.603 173.527 128.603 173.4C128.603 173.274 128.639 173.169 128.712 173.086C128.79 173.003 128.907 172.962 129.063 172.962C129.218 172.962 129.333 173.003 129.406 173.086C129.484 173.169 129.523 173.274 129.523 173.4C129.523 173.527 129.484 173.631 129.406 173.714C129.333 173.797 129.218 173.838 129.063 173.838ZM132.441 178.409C132.148 178.409 131.895 178.368 131.681 178.285C131.472 178.202 131.309 178.061 131.192 177.861C131.08 177.657 131.024 177.382 131.024 177.036V173.283H131.696V177.124C131.696 177.333 131.752 177.496 131.864 177.613C131.981 177.725 132.144 177.781 132.353 177.781H133.039V178.409H132.441ZM130.352 174.992V174.466H133.039V174.992H130.352ZM136.97 178.482C136.459 178.482 136.062 178.373 135.78 178.153C135.502 177.934 135.359 177.635 135.349 177.255H136.006C136.016 177.406 136.091 177.55 136.232 177.686C136.378 177.818 136.624 177.883 136.97 177.883C137.281 177.883 137.52 177.822 137.685 177.701C137.851 177.574 137.934 177.421 137.934 177.241C137.934 177.08 137.873 176.956 137.751 176.868C137.629 176.776 137.432 176.715 137.16 176.686L136.736 176.642C136.366 176.603 136.064 176.494 135.831 176.313C135.597 176.129 135.48 175.871 135.48 175.54C135.48 175.291 135.544 175.08 135.67 174.904C135.797 174.724 135.972 174.588 136.196 174.495C136.42 174.398 136.678 174.349 136.97 174.349C137.408 174.349 137.763 174.447 138.036 174.641C138.309 174.836 138.45 175.126 138.459 175.51H137.802C137.797 175.355 137.724 175.223 137.583 175.116C137.447 175.004 137.242 174.948 136.97 174.948C136.697 174.948 136.49 175.004 136.349 175.116C136.208 175.228 136.138 175.369 136.138 175.54C136.138 175.686 136.186 175.802 136.284 175.89C136.386 175.978 136.551 176.034 136.78 176.058L137.204 176.102C137.622 176.146 137.958 176.262 138.211 176.452C138.464 176.637 138.591 176.9 138.591 177.241C138.591 177.484 138.52 177.701 138.379 177.891C138.243 178.076 138.053 178.222 137.81 178.329C137.566 178.431 137.286 178.482 136.97 178.482ZM141.125 178.409C140.833 178.409 140.58 178.368 140.366 178.285C140.157 178.202 139.994 178.061 139.877 177.861C139.765 177.657 139.709 177.382 139.709 177.036V173.283H140.381V177.124C140.381 177.333 140.437 177.496 140.549 177.613C140.665 177.725 140.829 177.781 141.038 177.781H141.724V178.409H141.125ZM139.037 174.992V174.466H141.724V174.992H139.037ZM144.483 178.497C144.143 178.497 143.843 178.438 143.585 178.321C143.327 178.205 143.108 178.051 142.928 177.861C142.753 177.667 142.619 177.45 142.526 177.212C142.439 176.973 142.395 176.73 142.395 176.481V176.35C142.395 176.102 142.441 175.858 142.534 175.62C142.626 175.376 142.763 175.16 142.943 174.97C143.123 174.775 143.342 174.622 143.6 174.51C143.858 174.393 144.152 174.335 144.483 174.335C144.814 174.335 145.109 174.393 145.367 174.51C145.625 174.622 145.844 174.775 146.024 174.97C146.204 175.16 146.34 175.376 146.433 175.62C146.525 175.858 146.572 176.102 146.572 176.35V176.481C146.572 176.73 146.525 176.973 146.433 177.212C146.345 177.45 146.211 177.667 146.031 177.861C145.856 178.051 145.639 178.205 145.381 178.321C145.123 178.438 144.824 178.497 144.483 178.497ZM144.483 177.869C144.775 177.869 145.024 177.805 145.228 177.679C145.437 177.547 145.596 177.372 145.703 177.153C145.815 176.934 145.871 176.688 145.871 176.416C145.871 176.138 145.815 175.89 145.703 175.671C145.591 175.452 145.43 175.279 145.221 175.153C145.016 175.026 144.771 174.963 144.483 174.963C144.201 174.963 143.955 175.026 143.746 175.153C143.537 175.279 143.376 175.452 143.264 175.671C143.152 175.89 143.096 176.138 143.096 176.416C143.096 176.688 143.15 176.934 143.257 177.153C143.369 177.372 143.527 177.547 143.731 177.679C143.941 177.805 144.191 177.869 144.483 177.869ZM147.621 178.365V174.466H148.176V176.073H148.147C148.147 175.503 148.271 175.087 148.52 174.824C148.773 174.556 149.15 174.422 149.651 174.422H149.783V175.05H149.534C149.145 175.05 148.846 175.155 148.636 175.364C148.427 175.569 148.322 175.866 148.322 176.255V178.365H147.621ZM152.231 178.497C151.89 178.497 151.596 178.438 151.347 178.321C151.099 178.205 150.897 178.051 150.741 177.861C150.586 177.667 150.469 177.45 150.391 177.212C150.318 176.973 150.281 176.73 150.281 176.481V176.35C150.281 176.097 150.318 175.851 150.391 175.613C150.469 175.374 150.586 175.16 150.741 174.97C150.897 174.775 151.094 174.622 151.333 174.51C151.576 174.393 151.861 174.335 152.187 174.335C152.611 174.335 152.959 174.427 153.231 174.612C153.509 174.792 153.713 175.026 153.845 175.313C153.981 175.6 154.049 175.907 154.049 176.233V176.547H150.588V176.021H153.538L153.377 176.306C153.377 176.029 153.333 175.79 153.246 175.591C153.158 175.386 153.027 175.228 152.852 175.116C152.676 175.004 152.455 174.948 152.187 174.948C151.91 174.948 151.678 175.011 151.493 175.138C151.313 175.264 151.177 175.437 151.085 175.656C150.997 175.875 150.953 176.129 150.953 176.416C150.953 176.693 150.997 176.944 151.085 177.168C151.177 177.387 151.318 177.562 151.508 177.693C151.698 177.82 151.939 177.883 152.231 177.883C152.538 177.883 152.786 177.815 152.976 177.679C153.17 177.543 153.287 177.384 153.326 177.204H153.983C153.93 177.472 153.823 177.703 153.662 177.898C153.501 178.093 153.299 178.241 153.056 178.343C152.813 178.446 152.538 178.497 152.231 178.497Z" fill="#232631"/>
<g filter="url(#filter2_d_1913_10498)">
<circle cx="214.476" cy="175.865" r="4.25928" fill="white"/>
</g>
<circle cx="214.476" cy="175.865" r="3.04234" fill="#CC57B3"/>
<line x1="114.739" y1="112.31" x2="220.556" y2="112.31" stroke="#F2FBFB" stroke-width="3.65081" stroke-linecap="round"/>
<line x1="114.739" y1="121.717" x2="220.556" y2="121.717" stroke="#F2FBFB" stroke-width="3.65081" stroke-linecap="round"/>
<line x1="114.739" y1="131.124" x2="220.556" y2="131.124" stroke="#F2FBFB" stroke-width="3.65081" stroke-linecap="round"/>
<defs>
<filter id="filter0_d_1913_10498" x="100.736" y="78.1877" width="136.686" height="26.0343" filterUnits="userSpaceOnUse" color-interpolation-filters="sRGB">
<feFlood flood-opacity="0" result="BackgroundImageFix"/>
<feColorMatrix in="SourceAlpha" type="matrix" values="0 0 0 0 0 0 0 0 0 0 0 0 0 0 0 0 0 0 127 0" result="hardAlpha"/>
<feOffset/>
<feGaussianBlur stdDeviation="1.21694"/>
<feComposite in2="hardAlpha" operator="out"/>
<feColorMatrix type="matrix" values="0 0 0 0 0.905101 0 0 0 0 0.912551 0 0 0 0 0.92 0 0 0 0.2 0"/>
<feBlend mode="normal" in2="BackgroundImageFix" result="effect1_dropShadow_1913_10498"/>
<feBlend mode="normal" in="SourceGraphic" in2="effect1_dropShadow_1913_10498" result="shape"/>
</filter>
<filter id="filter1_d_1913_10498" x="202.915" y="141.113" width="23.1228" height="23.1218" filterUnits="userSpaceOnUse" color-interpolation-filters="sRGB">
<feFlood flood-opacity="0" result="BackgroundImageFix"/>
<feColorMatrix in="SourceAlpha" type="matrix" values="0 0 0 0 0 0 0 0 0 0 0 0 0 0 0 0 0 0 127 0" result="hardAlpha"/>
<feOffset/>
<feGaussianBlur stdDeviation="3.65081"/>
<feComposite in2="hardAlpha" operator="out"/>
<feColorMatrix type="matrix" values="0 0 0 0 0.136095 0 0 0 0 0.139645 0 0 0 0 0.153846 0 0 0 0.12 0"/>
<feBlend mode="normal" in2="BackgroundImageFix" result="effect1_dropShadow_1913_10498"/>
<feBlend mode="normal" in="SourceGraphic" in2="effect1_dropShadow_1913_10498" result="shape"/>
</filter>
<filter id="filter2_d_1913_10498" x="202.915" y="164.304" width="23.1228" height="23.1218" filterUnits="userSpaceOnUse" color-interpolation-filters="sRGB">
<feFlood flood-opacity="0" result="BackgroundImageFix"/>
<feColorMatrix in="SourceAlpha" type="matrix" values="0 0 0 0 0 0 0 0 0 0 0 0 0 0 0 0 0 0 127 0" result="hardAlpha"/>
<feOffset/>
<feGaussianBlur stdDeviation="3.65081"/>
<feComposite in2="hardAlpha" operator="out"/>
<feColorMatrix type="matrix" values="0 0 0 0 0.136095 0 0 0 0 0.139645 0 0 0 0 0.153846 0 0 0 0.12 0"/>
<feBlend mode="normal" in2="BackgroundImageFix" result="effect1_dropShadow_1913_10498"/>
<feBlend mode="normal" in="SourceGraphic" in2="effect1_dropShadow_1913_10498" result="shape"/>
</filter>
<linearGradient id="paint0_linear_1913_10498" x1="128.191" y1="132.865" x2="127.191" y2="132.865" gradientUnits="userSpaceOnUse">
<stop stop-color="#E7EDEF" stop-opacity="0.6"/>
<stop offset="1" stop-color="#E7EDEF"/>
</linearGradient>
<linearGradient id="paint1_linear_1913_10498" x1="66.9707" y1="132.865" x2="65.9707" y2="132.865" gradientUnits="userSpaceOnUse">
<stop stop-color="#E7EDEF" stop-opacity="0.6"/>
<stop offset="1" stop-color="#E7EDEF"/>
</linearGradient>
<linearGradient id="paint2_linear_1913_10498" x1="207.314" y1="132.865" x2="206.314" y2="132.865" gradientUnits="userSpaceOnUse">
<stop stop-color="#E7EDEF" stop-opacity="0.6"/>
<stop offset="1" stop-color="#E7EDEF"/>
</linearGradient>
<linearGradient id="paint3_linear_1913_10498" x1="268.539" y1="132.865" x2="267.539" y2="132.865" gradientUnits="userSpaceOnUse">
<stop stop-color="#E7EDEF" stop-opacity="0.6"/>
<stop offset="1" stop-color="#E7EDEF"/>
</linearGradient>
<linearGradient id="paint4_linear_1913_10498" x1="159.275" y1="93.7303" x2="159.275" y2="92.7303" gradientUnits="userSpaceOnUse">
<stop stop-color="#E7EDEF" stop-opacity="0.6"/>
<stop offset="1" stop-color="#E7EDEF"/>
</linearGradient>
<linearGradient id="paint5_linear_1913_10498" x1="159.748" y1="33.8202" x2="159.748" y2="32.8202" gradientUnits="userSpaceOnUse">
<stop stop-color="#E7EDEF" stop-opacity="0.6"/>
<stop offset="1" stop-color="#E7EDEF"/>
</linearGradient>
<linearGradient id="paint6_linear_1913_10498" x1="159.746" y1="229.978" x2="159.746" y2="228.978" gradientUnits="userSpaceOnUse">
<stop stop-color="#E7EDEF" stop-opacity="0.6"/>
<stop offset="1" stop-color="#E7EDEF"/>
</linearGradient>
<linearGradient id="paint7_linear_1913_10498" x1="159.747" y1="162.337" x2="159.747" y2="161.337" gradientUnits="userSpaceOnUse">
<stop stop-color="#E7EDEF" stop-opacity="0.6"/>
<stop offset="1" stop-color="#E7EDEF"/>
</linearGradient>
<linearGradient id="paint8_linear_1913_10498" x1="51.8989" y1="21.2584" x2="51.8989" y2="59.9101" gradientUnits="userSpaceOnUse">
<stop stop-color="#E7EDEF" stop-opacity="0.6"/>
<stop offset="1" stop-color="#E7EDEF"/>
</linearGradient>
<linearGradient id="paint9_linear_1913_10498" x1="306.215" y1="198.09" x2="306.215" y2="236.742" gradientUnits="userSpaceOnUse">
<stop stop-color="#E7EDEF" stop-opacity="0.6"/>
<stop offset="1" stop-color="#E7EDEF"/>
</linearGradient>
<clipPath id="clip0_1913_10498">
<rect width="16.9545" height="17.3933" fill="white" transform="translate(43.4199 31.8877)"/>
</clipPath>
<clipPath id="clip1_1913_10498">
<rect width="16.9545" height="17.3933" fill="white" transform="translate(297.738 208.719)"/>
</clipPath>
</defs>
</svg>
