<svg width="151" height="33" viewBox="0 0 151 33" fill="none" xmlns="http://www.w3.org/2000/svg">
<rect width="32.4684" height="32.4684" rx="6.83544" fill="white"/>
<path d="M21.9331 8.9967C19.8101 10.086 17.8854 11.5383 16.1592 13.3537C16.3775 14.0226 16.695 14.7392 17.1116 15.5036C17.5283 16.2489 17.9648 17.0515 18.4212 17.9114C19.6315 20.09 20.4946 21.9532 21.0105 23.5011L18.5105 27.3421C14.8001 26.4058 11.5064 25.0967 8.62933 23.4151C7.73645 22.88 6.8535 22.3258 5.98047 21.7525L7.97455 18.2554C10.9905 20.2619 13.7485 21.7334 16.2485 22.6698C15.7723 21.5423 15.058 20.1855 14.1056 18.5994C13.1532 16.9942 12.4588 15.7902 12.0222 14.9876C11.6056 14.1659 11.2782 13.3537 11.0401 12.5511C12.2703 11.0797 13.8378 9.62732 15.7426 8.19408C17.4886 6.8755 19.1553 5.85313 20.7426 5.12695L26.4868 8.82471C26.1098 10.449 25.2467 12.4651 23.8975 14.873C23.5602 15.4845 23.2625 15.9718 23.0046 16.3349L19.4331 14.357C20.2268 13.134 21.0601 11.3472 21.9331 8.9967Z" fill="#0A5F59"/>
<path d="M46.3237 26.8584C44.9703 26.8584 43.8288 26.6465 42.8992 26.2227C41.9695 25.7852 41.2655 25.1974 40.787 24.4591C40.3085 23.7072 40.0693 22.846 40.0693 21.8753H43.3298C43.3298 22.2581 43.4323 22.6136 43.6374 22.9417C43.8561 23.2698 44.1842 23.5363 44.6217 23.7414C45.0592 23.9328 45.6265 24.0285 46.3237 24.0285C46.9526 24.0285 47.4789 23.9465 47.9027 23.7824C48.3265 23.6184 48.6478 23.3928 48.8665 23.1057C49.0852 22.805 49.1946 22.4632 49.1946 22.0804C49.1946 21.6019 48.9895 21.226 48.5794 20.9525C48.1693 20.6655 47.5063 20.4809 46.5903 20.3989L45.4625 20.2963C43.9723 20.1733 42.783 19.7085 41.8944 18.9019C41.0057 18.0953 40.5614 17.029 40.5614 15.7029C40.5614 14.746 40.787 13.9189 41.2382 13.2217C41.703 12.5244 42.3455 11.9913 43.1657 11.6222C43.986 11.2394 44.9566 11.048 46.0776 11.048C47.2533 11.048 48.2582 11.2531 49.0921 11.6632C49.9397 12.0596 50.589 12.627 51.0402 13.3652C51.4913 14.0898 51.7169 14.9442 51.7169 15.9285H48.4359C48.4359 15.5594 48.347 15.2244 48.1693 14.9237C47.9916 14.6093 47.725 14.3563 47.3695 14.165C47.0278 13.9736 46.5971 13.8779 46.0776 13.8779C45.5855 13.8779 45.1685 13.9599 44.8268 14.1239C44.4987 14.288 44.2526 14.5136 44.0885 14.8006C43.9245 15.0741 43.8425 15.3748 43.8425 15.7029C43.8425 16.1267 43.9928 16.4958 44.2936 16.8103C44.5944 17.1247 45.0865 17.3093 45.77 17.3639L46.9184 17.4665C48.0121 17.5622 48.9759 17.8014 49.8098 18.1842C50.6437 18.5533 51.2931 19.066 51.7579 19.7222C52.2364 20.3647 52.4756 21.1508 52.4756 22.0804C52.4756 23.0374 52.2227 23.8781 51.7169 24.6027C51.2247 25.3136 50.5207 25.8672 49.6047 26.2637C48.6888 26.6601 47.5951 26.8584 46.3237 26.8584ZM59.7552 26.8584C58.7982 26.8584 57.9506 26.6943 57.2124 26.3662C56.4879 26.0381 55.8795 25.6006 55.3874 25.0538C54.9089 24.4933 54.5398 23.8713 54.28 23.1877C54.0339 22.4905 53.9109 21.7796 53.9109 21.0551V20.645C53.9109 19.8931 54.0339 19.1753 54.28 18.4918C54.5398 17.7946 54.9089 17.1725 55.3874 16.6257C55.8658 16.0789 56.4605 15.6482 57.1714 15.3338C57.896 15.0057 58.7162 14.8417 59.6322 14.8417C60.8352 14.8417 61.8469 15.1151 62.6671 15.6619C63.501 16.1951 64.1367 16.8991 64.5742 17.7741C65.0117 18.6353 65.2304 19.5786 65.2304 20.6039V21.7113H55.2848V19.8452H63.2413L62.175 20.7065C62.175 20.0366 62.0793 19.4624 61.8879 18.9839C61.6965 18.5055 61.4094 18.1432 61.0266 17.8971C60.6575 17.6374 60.1927 17.5075 59.6322 17.5075C59.058 17.5075 58.5727 17.6374 58.1762 17.8971C57.7798 18.1569 57.479 18.5396 57.2739 19.0455C57.0689 19.5376 56.9663 20.146 56.9663 20.8705C56.9663 21.5404 57.062 22.1282 57.2534 22.6341C57.4448 23.1262 57.7456 23.509 58.1557 23.7824C58.5658 24.0558 59.099 24.1925 59.7552 24.1925C60.3567 24.1925 60.8489 24.0763 61.2317 23.8439C61.6144 23.6115 61.8742 23.3244 62.0109 22.9827H65.0253C64.8613 23.7346 64.54 24.4044 64.0615 24.9923C63.5831 25.5801 62.9815 26.0381 62.257 26.3662C61.5324 26.6943 60.6985 26.8584 59.7552 26.8584ZM67.4045 26.4688V15.2313H70.0089V20.0503H69.8243C69.8243 18.9019 69.9678 17.945 70.2549 17.1794C70.5557 16.4138 71.0068 15.8396 71.6083 15.4569C72.2099 15.0741 72.9413 14.8827 73.8025 14.8827H73.9461C75.2585 14.8827 76.2564 15.3133 76.94 16.1746C77.6372 17.0222 77.9858 18.3141 77.9858 20.0503V26.4688H74.7048V19.8657C74.7048 19.2642 74.5271 18.772 74.1716 18.3893C73.8162 18.0065 73.3377 17.8151 72.7362 17.8151C72.121 17.8151 71.622 18.0133 71.2392 18.4098C70.8701 18.7925 70.6856 19.2984 70.6856 19.9272V26.4688H67.4045ZM85.4162 26.8379C84.6232 26.8379 83.8987 26.6943 83.2425 26.4072C82.5999 26.1201 82.0394 25.7237 81.561 25.2179C81.0825 24.6984 80.7134 24.09 80.4536 23.3928C80.2075 22.6956 80.0845 21.9437 80.0845 21.1371V20.6655C80.0845 19.8589 80.2007 19.107 80.4331 18.4098C80.6792 17.7125 81.0278 17.1042 81.4789 16.5847C81.9437 16.0515 82.4974 15.6414 83.1399 15.3543C83.7825 15.0536 84.5002 14.9032 85.2931 14.9032C86.1954 14.9032 86.9746 15.1014 87.6308 15.4979C88.287 15.8806 88.7997 16.4548 89.1688 17.2204C89.5379 17.9723 89.743 18.9019 89.784 20.0093L88.9227 19.2095V11.4991H92.2243V26.4688H89.6199V21.8138H90.0711C90.0301 22.8801 89.8045 23.7893 89.3944 24.5412C88.9979 25.2931 88.4579 25.8672 87.7744 26.2637C87.0908 26.6465 86.3048 26.8379 85.4162 26.8379ZM86.2364 24.09C86.7422 24.09 87.2002 23.9806 87.6103 23.7619C88.0341 23.5295 88.3691 23.1946 88.6151 22.7571C88.8749 22.3196 89.0048 21.7933 89.0048 21.1781V20.4194C89.0048 19.8179 88.8749 19.312 88.6151 18.9019C88.3554 18.4918 88.0136 18.1774 87.5898 17.9586C87.166 17.7399 86.7081 17.6305 86.2159 17.6305C85.6691 17.6305 85.1769 17.7741 84.7394 18.0612C84.3156 18.3346 83.9807 18.7174 83.7346 19.2095C83.4886 19.688 83.3655 20.2485 83.3655 20.891C83.3655 21.5472 83.4886 22.1146 83.7346 22.5931C83.9807 23.0715 84.3225 23.4406 84.7599 23.7004C85.1974 23.9601 85.6896 24.09 86.2364 24.09ZM98.3377 22.1829V19.271H101.024C101.544 19.271 101.988 19.1685 102.357 18.9634C102.74 18.7584 103.034 18.4713 103.239 18.1022C103.444 17.7194 103.546 17.2819 103.546 16.7898C103.546 16.2703 103.444 15.826 103.239 15.4569C103.034 15.0741 102.74 14.787 102.357 14.5956C101.988 14.3905 101.544 14.288 101.024 14.288H98.3377V11.3761H100.86C102.131 11.3761 103.218 11.588 104.12 12.0118C105.036 12.4356 105.734 13.0371 106.212 13.8163C106.704 14.5956 106.95 15.532 106.95 16.6257V16.9538C106.95 18.0201 106.704 18.9498 106.212 19.7427C105.734 20.5219 105.036 21.1234 104.12 21.5472C103.218 21.971 102.131 22.1829 100.86 22.1829H98.3377ZM95.3848 26.4688V11.3761H98.7478V26.4688H95.3848ZM109.511 26.4688V15.2313H112.792V26.4688H109.511ZM108.014 17.651V15.2313H112.792V17.651H108.014ZM110.782 14.1239C110.167 14.1239 109.709 13.9667 109.409 13.6523C109.121 13.3242 108.978 12.9141 108.978 12.4219C108.978 11.9161 109.121 11.506 109.409 11.1915C109.709 10.8634 110.167 10.6994 110.782 10.6994C111.398 10.6994 111.849 10.8634 112.136 11.1915C112.437 11.506 112.587 11.9161 112.587 12.4219C112.587 12.9141 112.437 13.3242 112.136 13.6523C111.849 13.9667 111.398 14.1239 110.782 14.1239ZM115.827 30.57V15.2313H118.431V20.0913L118.082 20.0708C118.137 18.9498 118.37 18.0065 118.78 17.2409C119.19 16.4617 119.743 15.8806 120.441 15.4979C121.138 15.1014 121.924 14.9032 122.799 14.9032C123.578 14.9032 124.282 15.0467 124.911 15.3338C125.554 15.6209 126.1 16.0242 126.552 16.5437C127.016 17.0495 127.365 17.651 127.597 18.3482C127.843 19.0318 127.966 19.7837 127.966 20.6039V21.0756C127.966 21.8822 127.85 22.6409 127.618 23.3518C127.385 24.049 127.044 24.6574 126.593 25.1769C126.155 25.6963 125.615 26.1065 124.973 26.4072C124.344 26.6943 123.619 26.8379 122.799 26.8379C121.951 26.8379 121.186 26.667 120.502 26.3252C119.832 25.9698 119.292 25.4366 118.882 24.7257C118.472 24.0012 118.246 23.0852 118.205 21.9779L119.108 23.2082V30.57H115.827ZM121.876 24.09C122.437 24.09 122.922 23.9533 123.332 23.6799C123.756 23.4065 124.084 23.0237 124.316 22.5315C124.549 22.0394 124.665 21.472 124.665 20.8295C124.665 20.187 124.549 19.6265 124.316 19.148C124.084 18.6695 123.763 18.3004 123.353 18.0406C122.942 17.7672 122.45 17.6305 121.876 17.6305C121.384 17.6305 120.919 17.7467 120.482 17.9791C120.044 18.2115 119.689 18.5465 119.415 18.9839C119.156 19.4077 119.026 19.9272 119.026 20.5424V21.3012C119.026 21.889 119.162 22.3948 119.436 22.8186C119.723 23.2288 120.085 23.5432 120.523 23.7619C120.96 23.9806 121.411 24.09 121.876 24.09ZM135.392 26.8584C134.435 26.8584 133.588 26.6943 132.85 26.3662C132.125 26.0381 131.517 25.6006 131.024 25.0538C130.546 24.4933 130.177 23.8713 129.917 23.1877C129.671 22.4905 129.548 21.7796 129.548 21.0551V20.645C129.548 19.8931 129.671 19.1753 129.917 18.4918C130.177 17.7946 130.546 17.1725 131.024 16.6257C131.503 16.0789 132.098 15.6482 132.809 15.3338C133.533 15.0057 134.353 14.8417 135.269 14.8417C136.472 14.8417 137.484 15.1151 138.304 15.6619C139.138 16.1951 139.774 16.8991 140.211 17.7741C140.649 18.6353 140.868 19.5786 140.868 20.6039V21.7113H130.922V19.8452H138.878L137.812 20.7065C137.812 20.0366 137.716 19.4624 137.525 18.9839C137.334 18.5055 137.046 18.1432 136.664 17.8971C136.295 17.6374 135.83 17.5075 135.269 17.5075C134.695 17.5075 134.21 17.6374 133.813 17.8971C133.417 18.1569 133.116 18.5396 132.911 19.0455C132.706 19.5376 132.603 20.146 132.603 20.8705C132.603 21.5404 132.699 22.1282 132.891 22.6341C133.082 23.1262 133.383 23.509 133.793 23.7824C134.203 24.0558 134.736 24.1925 135.392 24.1925C135.994 24.1925 136.486 24.0763 136.869 23.8439C137.252 23.6115 137.511 23.3244 137.648 22.9827H140.662C140.498 23.7346 140.177 24.4044 139.699 24.9923C139.22 25.5801 138.619 26.0381 137.894 26.3662C137.17 26.6943 136.336 26.8584 135.392 26.8584ZM143.042 26.4688V15.2313H145.646V20.0503H145.584C145.584 18.4644 145.919 17.2409 146.589 16.3796C147.273 15.5184 148.257 15.0877 149.542 15.0877H149.973V17.9176H149.153C148.25 17.9176 147.553 18.1637 147.061 18.6558C146.569 19.1343 146.323 19.8315 146.323 20.7475V26.4688H143.042Z" fill="white"/>
</svg>
