<svg width="60" height="60" viewBox="0 0 60 60" fill="none" xmlns="http://www.w3.org/2000/svg">
<path d="M0 12C0 5.37258 5.37258 0 12 0H48C54.6274 0 60 5.37258 60 12V48C60 54.6274 54.6274 60 48 60H12C5.37258 60 0 54.6274 0 48V12Z" fill="url(#paint0_linear_1913_10822)"/>
<path d="M34.574 34.9887L31.3419 41.78C31.2808 41.9085 31.1893 42.0201 31.0754 42.1052C30.9614 42.1904 30.8285 42.2465 30.688 42.2688C30.5476 42.2911 30.4038 42.2788 30.2691 42.2331C30.1344 42.1874 30.0129 42.1096 29.915 42.0064L24.742 36.5456C24.6038 36.3999 24.4197 36.306 24.2206 36.2798L16.7618 35.3042C16.6209 35.2856 16.4866 35.2331 16.3705 35.151C16.2545 35.069 16.1601 34.96 16.0955 34.8333C16.031 34.7067 15.9982 34.5662 16.0001 34.4241C16.0019 34.282 16.0383 34.1424 16.1061 34.0175L19.7018 27.4102C19.7974 27.2335 19.8294 27.0293 19.7924 26.8319L18.4151 19.4374C18.389 19.2974 18.3973 19.1532 18.4394 19.0172C18.4815 18.8812 18.5562 18.7575 18.6569 18.6568C18.7575 18.5561 18.8812 18.4815 19.0173 18.4393C19.1533 18.3972 19.2975 18.3889 19.4375 18.415L26.8319 19.7923C27.0294 19.8293 27.2336 19.7973 27.4103 19.7017L34.0175 16.106C34.1426 16.0382 34.2822 16.0018 34.4245 16.0001C34.5667 15.9983 34.7072 16.0312 34.8339 16.0959C34.9605 16.1606 35.0696 16.2552 35.1515 16.3714C35.2335 16.4877 35.2859 16.6221 35.3042 16.7632L36.2798 24.2205C36.3061 24.4196 36.3999 24.6037 36.5457 24.7419L42.0064 29.915C42.1096 30.0129 42.1874 30.1344 42.2331 30.2691C42.2788 30.4038 42.2911 30.5475 42.2688 30.688C42.2465 30.8285 42.1904 30.9614 42.1052 31.0753C42.0201 31.1892 41.9085 31.2807 41.7801 31.3419L34.9888 34.574C34.807 34.6605 34.6605 34.8069 34.574 34.9887ZM35.738 37.8031L37.8031 35.738L44 41.9334L41.9334 44L35.738 37.8031Z" fill="#0A5F59"/>
<defs>
<linearGradient id="paint0_linear_1913_10822" x1="60" y1="57.4286" x2="-2.01408" y2="54.488" gradientUnits="userSpaceOnUse">
<stop stop-color="#FDCF6E"/>
<stop offset="1" stop-color="#FDC349"/>
</linearGradient>
</defs>
</svg>
