<svg width="60" height="60" viewBox="0 0 60 60" fill="none" xmlns="http://www.w3.org/2000/svg">
<rect width="60" height="60" rx="12" fill="url(#paint0_linear_1913_10856)"/>
<path d="M21.6 22.2222V17.5556C21.6 17.143 21.7475 16.7473 22.0101 16.4556C22.2726 16.1639 22.6287 16 23 16H31.9796L34.7796 19.1111H42.6C42.9713 19.1111 43.3274 19.275 43.59 19.5667C43.8525 19.8584 44 20.2541 44 20.6667V36.2222C44 36.6348 43.8525 37.0304 43.59 37.3222C43.3274 37.6139 42.9713 37.7778 42.6 37.7778H38.4V42.4444C38.4 42.857 38.2525 43.2527 37.99 43.5444C37.7274 43.8361 37.3713 44 37 44H17.4C17.0287 44 16.6726 43.8361 16.4101 43.5444C16.1475 43.2527 16 42.857 16 42.4444V23.7778C16 23.3652 16.1475 22.9696 16.4101 22.6778C16.6726 22.3861 17.0287 22.2222 17.4 22.2222H21.6ZM21.6 25.3333H18.8V40.8889H35.6V37.7778H21.6V25.3333Z" fill="#0A5F59"/>
<defs>
<linearGradient id="paint0_linear_1913_10856" x1="60" y1="57.4286" x2="-2.01408" y2="54.488" gradientUnits="userSpaceOnUse">
<stop stop-color="#FDCF6E"/>
<stop offset="1" stop-color="#FDC349"/>
</linearGradient>
</defs>
</svg>
