<svg width="151" height="33" viewBox="0 0 151 33" fill="none" xmlns="http://www.w3.org/2000/svg">
<rect width="32.4684" height="32.4684" rx="6.83544" fill="#0F4C5C"/>
<path d="M21.9331 8.99621C19.8101 10.0855 17.8854 11.5378 16.1592 13.3533C16.3775 14.0221 16.695 14.7387 17.1116 15.5031C17.5283 16.2484 17.9648 17.051 18.4212 17.9109C19.6315 20.0895 20.4946 21.9527 21.0105 23.5006L18.5105 27.3417C14.8001 26.4053 11.5064 25.0962 8.62933 23.4146C7.73645 22.8795 6.8535 22.3253 5.98047 21.752L7.97455 18.2549C10.9905 20.2615 13.7485 21.7329 16.2485 22.6693C15.7723 21.5418 15.058 20.185 14.1056 18.5989C13.1532 16.9937 12.4588 15.7898 12.0222 14.9871C11.6056 14.1654 11.2782 13.3533 11.0401 12.5506C12.2703 11.0792 13.8378 9.62683 15.7426 8.1936C17.4886 6.87502 19.1553 5.85264 20.7426 5.12646L26.4868 8.82422C26.1098 10.4486 25.2467 12.4646 23.8975 14.8725C23.5602 15.484 23.2625 15.9713 23.0046 16.3344L19.4331 14.3565C20.2268 13.1335 21.0601 11.3467 21.9331 8.99621Z" fill="white"/>
<path d="M47.019 23.3896C45.6656 23.3896 44.5241 23.1777 43.5945 22.7539C42.6649 22.3165 41.9608 21.7286 41.4823 20.9904C41.0038 20.2385 40.7646 19.3772 40.7646 18.4066H44.0251C44.0251 18.7894 44.1276 19.1448 44.3327 19.4729C44.5514 19.801 44.8795 20.0676 45.317 20.2727C45.7545 20.4641 46.3218 20.5597 47.019 20.5597C47.6479 20.5597 48.1742 20.4777 48.598 20.3137C49.0218 20.1496 49.3431 19.9241 49.5618 19.637C49.7806 19.3362 49.8899 18.9944 49.8899 18.6116C49.8899 18.1332 49.6849 17.7572 49.2747 17.4838C48.8646 17.1967 48.2016 17.0122 47.2856 16.9301L46.1578 16.8276C44.6676 16.7046 43.4783 16.2397 42.5897 15.4332C41.7011 14.6266 41.2568 13.5603 41.2568 12.2342C41.2568 11.2772 41.4823 10.4501 41.9335 9.75291C42.3983 9.0557 43.0408 8.52253 43.8611 8.15342C44.6813 7.77063 45.6519 7.57924 46.773 7.57924C47.9487 7.57924 48.9535 7.7843 49.7874 8.19443C50.635 8.59089 51.2844 9.15823 51.7355 9.89645C52.1866 10.621 52.4122 11.4754 52.4122 12.4597H49.1312C49.1312 12.0906 49.0423 11.7557 48.8646 11.4549C48.6869 11.1405 48.4203 10.8876 48.0649 10.6962C47.7231 10.5048 47.2925 10.4091 46.773 10.4091C46.2808 10.4091 45.8638 10.4911 45.5221 10.6552C45.194 10.8192 44.9479 11.0448 44.7838 11.3319C44.6198 11.6053 44.5378 11.9061 44.5378 12.2342C44.5378 12.658 44.6881 13.0271 44.9889 13.3415C45.2897 13.6559 45.7818 13.8405 46.4654 13.8952L47.6137 13.9977C48.7074 14.0934 49.6712 14.3327 50.5051 14.7154C51.339 15.0846 51.9884 15.5972 52.4532 16.2534C52.9317 16.8959 53.1709 17.682 53.1709 18.6116C53.1709 19.5686 52.918 20.4094 52.4122 21.1339C51.92 21.8448 51.216 22.3985 50.3 22.7949C49.3841 23.1914 48.2904 23.3896 47.019 23.3896ZM60.4505 23.3896C59.4936 23.3896 58.646 23.2256 57.9077 22.8975C57.1832 22.5694 56.5748 22.1319 56.0827 21.5851C55.6042 21.0246 55.2351 20.4025 54.9753 19.719C54.7293 19.0218 54.6062 18.3109 54.6062 17.5863V17.1762C54.6062 16.4243 54.7293 15.7066 54.9753 15.023C55.2351 14.3258 55.6042 13.7038 56.0827 13.157C56.5612 12.6101 57.1558 12.1795 57.8667 11.8651C58.5913 11.537 59.4115 11.3729 60.3275 11.3729C61.5305 11.3729 62.5422 11.6463 63.3624 12.1932C64.1963 12.7263 64.832 13.4304 65.2695 14.3053C65.707 15.1666 65.9257 16.1099 65.9257 17.1352V18.2425H55.9801V16.3765H63.9366L62.8703 17.2377C62.8703 16.5678 62.7746 15.9937 62.5832 15.5152C62.3918 15.0367 62.1047 14.6744 61.7219 14.4284C61.3528 14.1686 60.888 14.0387 60.3275 14.0387C59.7533 14.0387 59.268 14.1686 58.8715 14.4284C58.4751 14.6881 58.1743 15.0709 57.9693 15.5767C57.7642 16.0689 57.6617 16.6772 57.6617 17.4018C57.6617 18.0716 57.7574 18.6595 57.9487 19.1653C58.1401 19.6575 58.4409 20.0403 58.851 20.3137C59.2612 20.5871 59.7943 20.7238 60.4505 20.7238C61.052 20.7238 61.5442 20.6076 61.927 20.3752C62.3098 20.1428 62.5695 19.8557 62.7062 19.5139H65.7206C65.5566 20.2658 65.2353 20.9357 64.7568 21.5235C64.2784 22.1114 63.6768 22.5694 62.9523 22.8975C62.2277 23.2256 61.3938 23.3896 60.4505 23.3896ZM68.0999 23V11.7625H70.7042V16.5815H70.5196C70.5196 15.4332 70.6632 14.4762 70.9502 13.7106C71.251 12.9451 71.7021 12.3709 72.3037 11.9881C72.9052 11.6053 73.6366 11.4139 74.4978 11.4139H74.6414C75.9538 11.4139 76.9518 11.8446 77.6353 12.7058C78.3325 13.5534 78.6811 14.8453 78.6811 16.5815V23H75.4001V16.397C75.4001 15.7954 75.2224 15.3033 74.8669 14.9205C74.5115 14.5377 74.033 14.3463 73.4315 14.3463C72.8163 14.3463 72.3173 14.5446 71.9345 14.941C71.5654 15.3238 71.3809 15.8296 71.3809 16.4585V23H68.0999ZM86.1115 23.3691C85.3186 23.3691 84.594 23.2256 83.9378 22.9385C83.2953 22.6514 82.7348 22.2549 82.2563 21.7491C81.7778 21.2296 81.4087 20.6213 81.1489 19.9241C80.9029 19.2268 80.7798 18.4749 80.7798 17.6684V17.1967C80.7798 16.3901 80.896 15.6382 81.1284 14.941C81.3745 14.2438 81.7231 13.6354 82.1742 13.1159C82.6391 12.5828 83.1927 12.1727 83.8353 11.8856C84.4778 11.5848 85.1955 11.4344 85.9884 11.4344C86.8907 11.4344 87.6699 11.6327 88.3261 12.0291C88.9824 12.4119 89.495 12.9861 89.8641 13.7516C90.2332 14.5035 90.4383 15.4332 90.4793 16.5405L89.618 15.7408V8.03038H92.9196V23H90.3153V18.3451H90.7664C90.7254 19.4114 90.4998 20.3205 90.0897 21.0724C89.6932 21.8243 89.1532 22.3985 88.4697 22.7949C87.7861 23.1777 87.0001 23.3691 86.1115 23.3691ZM86.9317 20.6213C87.4375 20.6213 87.8955 20.5119 88.3056 20.2932C88.7294 20.0608 89.0644 19.7258 89.3105 19.2884C89.5702 18.8509 89.7001 18.3246 89.7001 17.7094V16.9506C89.7001 16.3491 89.5702 15.8433 89.3105 15.4332C89.0507 15.023 88.7089 14.7086 88.2851 14.4899C87.8613 14.2711 87.4034 14.1618 86.9112 14.1618C86.3644 14.1618 85.8722 14.3053 85.4348 14.5924C85.011 14.8658 84.676 15.2486 84.4299 15.7408C84.1839 16.2192 84.0608 16.7797 84.0608 17.4223C84.0608 18.0785 84.1839 18.6458 84.4299 19.1243C84.676 19.6028 85.0178 19.9719 85.4553 20.2316C85.8927 20.4914 86.3849 20.6213 86.9317 20.6213ZM99.033 18.7142V15.8023H101.719C102.239 15.8023 102.683 15.6997 103.052 15.4947C103.435 15.2896 103.729 15.0025 103.934 14.6334C104.139 14.2506 104.242 13.8132 104.242 13.321C104.242 12.8015 104.139 12.3572 103.934 11.9881C103.729 11.6053 103.435 11.3182 103.052 11.1268C102.683 10.9218 102.239 10.8192 101.719 10.8192H99.033V7.90734H101.555C102.827 7.90734 103.914 8.11924 104.816 8.54304C105.732 8.96684 106.429 9.56835 106.907 10.3476C107.4 11.1268 107.646 12.0633 107.646 13.157V13.4851C107.646 14.5514 107.4 15.481 106.907 16.2739C106.429 17.0532 105.732 17.6547 104.816 18.0785C103.914 18.5023 102.827 18.7142 101.555 18.7142H99.033ZM96.0801 23V7.90734H99.4431V23H96.0801ZM110.206 23V11.7625H113.487V23H110.206ZM108.709 14.1823V11.7625H113.487V14.1823H108.709ZM111.478 10.6552C110.863 10.6552 110.405 10.498 110.104 10.1835C109.817 9.85544 109.673 9.44532 109.673 8.95316C109.673 8.44734 109.817 8.03721 110.104 7.72278C110.405 7.39468 110.863 7.23063 111.478 7.23063C112.093 7.23063 112.544 7.39468 112.831 7.72278C113.132 8.03721 113.282 8.44734 113.282 8.95316C113.282 9.44532 113.132 9.85544 112.831 10.1835C112.544 10.498 112.093 10.6552 111.478 10.6552ZM116.522 27.1013V11.7625H119.126V16.6225L118.778 16.602C118.832 15.481 119.065 14.5377 119.475 13.7722C119.885 12.9929 120.439 12.4119 121.136 12.0291C121.833 11.6327 122.619 11.4344 123.494 11.4344C124.273 11.4344 124.977 11.578 125.606 11.8651C126.249 12.1522 126.796 12.5554 127.247 13.0749C127.712 13.5808 128.06 14.1823 128.293 14.8795C128.539 15.563 128.662 16.3149 128.662 17.1352V17.6068C128.662 18.4134 128.546 19.1722 128.313 19.883C128.081 20.5803 127.739 21.1886 127.288 21.7081C126.85 22.2276 126.31 22.6377 125.668 22.9385C125.039 23.2256 124.314 23.3691 123.494 23.3691C122.647 23.3691 121.881 23.1982 121.197 22.8565C120.528 22.501 119.988 21.9678 119.577 21.257C119.167 20.5324 118.942 19.6165 118.901 18.5091L119.803 19.7395V27.1013H116.522ZM122.571 20.6213C123.132 20.6213 123.617 20.4846 124.027 20.2111C124.451 19.9377 124.779 19.5549 125.012 19.0628C125.244 18.5706 125.36 18.0033 125.36 17.3608C125.36 16.7182 125.244 16.1577 125.012 15.6792C124.779 15.2008 124.458 14.8316 124.048 14.5719C123.638 14.2985 123.146 14.1618 122.571 14.1618C122.079 14.1618 121.614 14.278 121.177 14.5104C120.74 14.7428 120.384 15.0777 120.111 15.5152C119.851 15.939 119.721 16.4585 119.721 17.0737V17.8324C119.721 18.4203 119.858 18.9261 120.131 19.3499C120.418 19.76 120.781 20.0744 121.218 20.2932C121.655 20.5119 122.107 20.6213 122.571 20.6213ZM136.088 23.3896C135.131 23.3896 134.283 23.2256 133.545 22.8975C132.82 22.5694 132.212 22.1319 131.72 21.5851C131.241 21.0246 130.872 20.4025 130.612 19.719C130.366 19.0218 130.243 18.3109 130.243 17.5863V17.1762C130.243 16.4243 130.366 15.7066 130.612 15.023C130.872 14.3258 131.241 13.7038 131.72 13.157C132.198 12.6101 132.793 12.1795 133.504 11.8651C134.228 11.537 135.049 11.3729 135.965 11.3729C137.168 11.3729 138.179 11.6463 139 12.1932C139.833 12.7263 140.469 13.4304 140.907 14.3053C141.344 15.1666 141.563 16.1099 141.563 17.1352V18.2425H131.617V16.3765H139.574L138.507 17.2377C138.507 16.5678 138.412 15.9937 138.22 15.5152C138.029 15.0367 137.742 14.6744 137.359 14.4284C136.99 14.1686 136.525 14.0387 135.965 14.0387C135.39 14.0387 134.905 14.1686 134.509 14.4284C134.112 14.6881 133.811 15.0709 133.606 15.5767C133.401 16.0689 133.299 16.6772 133.299 17.4018C133.299 18.0716 133.394 18.6595 133.586 19.1653C133.777 19.6575 134.078 20.0403 134.488 20.3137C134.898 20.5871 135.431 20.7238 136.088 20.7238C136.689 20.7238 137.181 20.6076 137.564 20.3752C137.947 20.1428 138.207 19.8557 138.343 19.5139H141.358C141.194 20.2658 140.872 20.9357 140.394 21.5235C139.915 22.1114 139.314 22.5694 138.589 22.8975C137.865 23.2256 137.031 23.3896 136.088 23.3896ZM143.737 23V11.7625H146.341V16.5815H146.28C146.28 14.9957 146.615 13.7722 147.285 12.9109C147.968 12.0496 148.952 11.619 150.237 11.619H150.668V14.4489H149.848C148.946 14.4489 148.248 14.6949 147.756 15.1871C147.264 15.6656 147.018 16.3628 147.018 17.2787V23H143.737Z" fill="#0F4C5C"/>
</svg>
