<svg width="60" height="60" viewBox="0 0 60 60" fill="none" xmlns="http://www.w3.org/2000/svg">
<path d="M0 12C0 5.37258 5.37258 0 12 0H48C54.6274 0 60 5.37258 60 12V48C60 54.6274 54.6274 60 48 60H12C5.37258 60 0 54.6274 0 48V12Z" fill="url(#paint0_linear_1919_10153)"/>
<path d="M19.5005 18.324L30 16L40.4995 18.324C40.7832 18.3868 41.037 18.5441 41.2189 18.77C41.4008 18.9958 41.5 19.2767 41.5 19.5662V32.2769C41.4999 33.534 41.1882 34.7717 40.5926 35.88C39.997 36.9883 39.1359 37.9331 38.0858 38.6304L30 44L21.9142 38.6304C20.8642 37.9332 20.0033 36.9887 19.4077 35.8806C18.8121 34.7725 18.5003 33.5351 18.5 32.2782V19.5662C18.5 19.2767 18.5992 18.9958 18.7811 18.77C18.963 18.5441 19.2168 18.3868 19.5005 18.324ZM31.2778 27.4545V21.0909L24.8889 30H28.7222V36.3636L35.1111 27.4545H31.2778Z" fill="#0A5F59"/>
<defs>
<linearGradient id="paint0_linear_1919_10153" x1="60" y1="57.4286" x2="-2.01408" y2="54.488" gradientUnits="userSpaceOnUse">
<stop stop-color="#FDCF6E"/>
<stop offset="1" stop-color="#FDC349"/>
</linearGradient>
</defs>
</svg>
