<svg width="1193" height="544" viewBox="0 0 1193 544" fill="none" xmlns="http://www.w3.org/2000/svg">
<rect width="1193" height="544" rx="20" fill="#0A5F59"/>
<path d="M97.4237 464.91C95.7665 462.458 92.0656 462.449 91.6611 458.657C92.4457 458.859 92.9628 458.895 93.387 459.116C98.0679 461.556 102.752 463.99 107.386 466.521C108.145 466.935 109.12 467.759 109.194 468.479C109.328 469.802 108.077 470.092 106.959 470.291C103.485 470.912 100.019 471.578 96.5263 472.23C96.5772 470.789 98.4878 469.42 102.258 468.124C92.0021 464.182 81.47 470.101 79.8178 480.879C80.8777 480.987 81.9344 481.062 82.9811 481.209C86.0631 481.642 88.7249 482.894 90.7761 485.363C92.2871 487.182 92.8844 489.211 91.9404 491.437C90.9688 493.728 88.9566 494.423 86.6707 494.501C81.7186 494.67 78.0511 491.74 76.9642 486.771C76.8301 486.158 76.6013 485.567 76.3513 484.753C70.4099 486.806 65.6521 490.22 62.6418 495.677C58.0004 504.092 62.7754 510.875 68.5259 514.264C69.2368 514.683 70.0245 514.966 71.241 515.526C69.2392 516.165 67.864 515.576 66.5357 514.996C61.2908 512.71 57.6731 506.533 58.139 500.725C58.4372 497.008 59.8078 493.729 62.194 490.919C65.7044 486.784 69.933 483.713 75.1124 482.097C75.6218 481.938 76.1212 481.746 76.7901 481.512C77.8775 476.596 79.5456 471.952 83.6597 468.626C87.6768 465.378 92.5533 465.395 97.4237 464.91ZM79.4574 484.032C79.3266 489.231 82.3358 492.532 86.6987 492.067C87.7276 491.958 88.9949 491.279 89.5813 490.446C90.4164 489.259 89.6917 487.983 88.7227 486.977C86.2105 484.368 83.1366 483.652 79.4574 484.032Z" fill="#01CC88"/>
<g opacity="0.2">
<path d="M1130.31 412.99V396.809H1114.29V386.023H1130.31V369.842H1140.99V386.023H1157V396.809H1140.99V412.99H1130.31Z" fill="#01CC88"/>
<path fill-rule="evenodd" clip-rule="evenodd" d="M1136.3 380.296H1152.31V391.698H1136.3L1136.3 407.878H1125.01V391.698H1109V380.296H1125.01V364.115H1136.3V380.296ZM1125.62 391.083L1125.62 407.263H1135.69V391.083H1151.71V380.911H1135.69V364.731H1125.62V380.911H1109.61V391.083H1125.62Z" fill="#01CC88"/>
</g>
<g opacity="0.2">
<path d="M828.309 109V93.1092H812.295V82.5153H828.309V66.6245H838.985V82.5153H855V93.1092H838.985V109H828.309Z" fill="#FDCF6E"/>
<path fill-rule="evenodd" clip-rule="evenodd" d="M834.3 76.8908H850.315V88.0892H834.3L834.3 103.98H823.014V88.0892H807V76.8908H823.014V61H834.3V76.8908ZM823.624 87.4848L823.624 103.376H833.69V87.4848H849.705V77.4953H833.69V61.6045H823.624V77.4953H807.61V87.4848H823.624Z" fill="#FDCF6E"/>
</g>
<path d="M147.407 282.132C146.85 283.374 146.058 284.101 145.37 283.883C144.511 283.61 143.875 283.067 143.932 282.257C143.993 281.385 144.564 280.571 145.338 280.395C146.033 280.237 146.838 280.913 147.407 282.132Z" fill="#01CC88"/>
<path d="M133.412 288.104C132.651 289.609 132.084 290.061 131.292 289.84C130.55 289.632 129.929 288.861 129.914 288.126C129.897 287.291 130.476 286.559 131.419 286.453C132.516 286.329 133.014 287.127 133.412 288.104Z" fill="#01CC88"/>
<path d="M112.422 258.638C113.067 257.198 113.633 256.692 114.41 256.86C115.232 257.039 115.898 257.846 115.882 258.646C115.87 259.23 115.05 260.244 114.485 260.374C113.795 260.533 112.993 259.858 112.422 258.638Z" fill="#01CC88"/>
<path d="M152.132 282.334C152.111 281.251 152.922 280.367 153.899 280.408C154.628 280.439 155.54 281.466 155.532 282.249C155.526 282.885 154.531 283.916 153.911 283.929C153.027 283.946 152.147 283.158 152.132 282.334Z" fill="#01CC88"/>
<path d="M141.601 288.053C141.612 287.175 142.405 286.323 143.215 286.32C143.972 286.318 144.831 287.259 144.834 288.094C144.837 288.909 144.09 289.849 143.415 289.88C142.43 289.925 141.588 289.077 141.601 288.053Z" fill="#01CC88"/>
<path d="M162.359 258.457C162.384 259.104 161.353 260.376 160.783 260.399C160.067 260.429 158.877 259.344 158.864 258.65C158.848 257.812 159.824 256.821 160.645 256.84C161.203 256.853 162.338 257.924 162.359 258.457Z" fill="#01CC88"/>
<path d="M120.05 266.085C119.141 266.108 118.263 265.349 118.271 264.547C118.279 263.595 119.043 262.836 120.035 262.791C120.916 262.752 121.743 263.635 121.727 264.597C121.715 265.331 120.89 266.063 120.05 266.085Z" fill="#01CC88"/>
<path d="M138.993 265.455C138.998 266.397 138.265 267.274 137.487 267.257C136.579 267.237 135.74 266.355 135.76 265.444C135.778 264.615 136.665 263.675 137.403 263.7C138.228 263.729 138.987 264.567 138.993 265.455Z" fill="#01CC88"/>
<path d="M119.38 282.21C119.361 281.244 120.173 280.34 121.03 280.372C121.814 280.401 122.564 281.255 122.617 282.178C122.664 283.009 121.837 283.908 121.012 283.922C120.208 283.936 119.397 283.085 119.38 282.21Z" fill="#01CC88"/>
<path d="M138.993 273.861C138.98 274.715 138.28 275.563 137.562 275.593C136.679 275.63 135.789 274.771 135.76 273.855C135.734 273.011 136.54 272.076 137.328 272.037C138.181 271.993 139.007 272.898 138.993 273.861Z" fill="#01CC88"/>
<path d="M106.239 282.263C106.249 283.039 105.492 283.849 104.698 283.914C103.855 283.983 102.992 283.075 103 282.126C103.007 281.24 103.772 280.398 104.595 280.371C105.414 280.344 106.227 281.28 106.239 282.263Z" fill="#01CC88"/>
<path d="M111.19 282.147C111.191 281.252 111.928 280.421 112.762 280.374C113.57 280.328 114.408 281.266 114.43 282.242C114.448 283.069 113.562 283.96 112.763 283.918C111.928 283.873 111.189 283.041 111.19 282.147Z" fill="#01CC88"/>
<path d="M130.805 282.2C130.792 283.076 129.988 283.928 129.181 283.923C128.427 283.919 127.586 283.09 127.571 282.336C127.55 281.344 128.295 280.413 129.143 280.372C129.996 280.332 130.82 281.238 130.805 282.2Z" fill="#01CC88"/>
<path d="M163.56 282.199C163.543 283.267 162.922 283.964 162.021 283.928C161.12 283.892 160.284 282.98 160.325 282.079C160.364 281.239 161.182 280.436 162.026 280.409C162.807 280.383 163.575 281.28 163.56 282.199Z" fill="#01CC88"/>
<path d="M131.53 274.684C132.523 274.684 133.253 275.338 133.299 276.267C133.347 277.235 132.579 277.978 131.528 277.981C130.72 277.983 129.943 277.228 129.911 276.409C129.876 275.516 130.657 274.684 131.53 274.684Z" fill="#01CC88"/>
<path d="M138.994 282.164C138.991 283.059 138.205 283.915 137.381 283.922C136.612 283.927 135.749 282.971 135.761 282.128C135.773 281.291 136.673 280.337 137.415 280.373C138.255 280.414 138.997 281.256 138.994 282.164Z" fill="#01CC88"/>
<path d="M170.259 280.37C171.535 281.032 172.141 281.818 171.972 282.536C171.805 283.246 171.013 283.907 170.302 283.928C169.572 283.95 168.957 283.46 168.762 282.699C168.493 281.646 168.818 281.122 170.259 280.37Z" fill="#01CC88"/>
<path d="M114.078 307.459C113.207 307.443 112.362 306.604 112.387 305.781C112.411 304.98 113.352 304.135 114.184 304.167C115.022 304.199 115.927 305.124 115.868 305.889C115.799 306.765 114.989 307.476 114.078 307.459Z" fill="#01CC88"/>
<path d="M160.65 307.459C159.75 307.469 158.932 306.736 158.876 305.87C158.827 305.116 159.754 304.189 160.58 304.167C161.414 304.143 162.351 305.002 162.36 305.799C162.37 306.629 161.524 307.45 160.65 307.459Z" fill="#01CC88"/>
<path d="M127.305 270.367C127.309 271.58 126.894 272.04 125.803 272.035C124.929 272.03 124.095 271.24 124.08 270.401C124.066 269.574 124.904 268.748 125.77 268.735C126.883 268.717 127.301 269.162 127.305 270.367Z" fill="#01CC88"/>
<path d="M153.287 264.369C153.302 263.31 153.839 262.788 154.915 262.789C155.731 262.789 156.496 263.627 156.519 264.545C156.538 265.344 155.673 266.093 154.742 266.083C153.686 266.071 153.27 265.581 153.287 264.369Z" fill="#01CC88"/>
<path d="M144.838 276.277C144.865 277.166 144.091 277.983 143.223 277.982C142.216 277.981 141.651 277.409 141.601 276.338C141.551 275.284 142.083 274.719 143.157 274.687C144.14 274.657 144.807 275.288 144.838 276.277Z" fill="#01CC88"/>
<path d="M138.993 257.095C139.004 258.051 138.277 258.935 137.492 258.919C136.579 258.9 135.73 258.005 135.76 257.093C135.788 256.234 136.502 255.495 137.329 255.468C138.264 255.439 138.981 256.14 138.993 257.095Z" fill="#01CC88"/>
<path d="M138.993 315.637C139.169 316.763 138.358 317.205 137.423 317.273C136.629 317.331 135.761 316.516 135.76 315.772C135.76 314.803 136.543 313.99 137.482 313.984C138.589 313.977 138.995 314.421 138.993 315.637Z" fill="#01CC88"/>
<path d="M118.27 300.011C118.892 298.546 119.388 298.089 120.205 298.23C120.999 298.367 121.703 299.167 121.727 299.961C121.746 300.566 121.038 301.382 120.39 301.502C119.309 301.701 118.928 301.433 118.27 300.011Z" fill="#01CC88"/>
<path d="M138.993 307.295C139.154 308.311 138.566 308.835 137.43 308.934C136.554 309.01 135.72 308.054 135.761 307.102C135.793 306.365 136.632 305.651 137.476 305.644C138.579 305.636 138.993 306.086 138.993 307.295Z" fill="#01CC88"/>
<path d="M137.364 250.313C136.222 250.459 135.888 249.714 135.777 248.863C135.662 247.983 136.554 247.064 137.454 247.02C138.233 246.983 138.99 247.853 138.993 248.788C138.996 249.897 138.548 250.317 137.364 250.313Z" fill="#01CC88"/>
<path d="M138.993 290.425C139.012 291.537 138.454 292.242 137.539 292.262C136.622 292.282 135.749 291.402 135.76 290.469C135.771 289.593 136.412 289.011 137.407 288.973C138.46 288.933 138.974 289.404 138.993 290.425Z" fill="#01CC88"/>
<path d="M127.305 293.961C127.298 295.122 126.874 295.553 125.732 295.559C124.662 295.565 124.045 294.988 124.074 294.008C124.098 293.151 124.884 292.364 125.763 292.316C126.74 292.263 127.311 292.872 127.305 293.961Z" fill="#01CC88"/>
<path d="M154.982 298.213C155.795 298.244 156.559 299.163 156.518 300.061C156.482 300.855 155.565 301.56 154.633 301.511C153.667 301.46 153.221 300.896 153.288 299.812C153.353 298.768 153.981 298.176 154.982 298.213Z" fill="#01CC88"/>
<path d="M138.993 298.917C139.001 300.098 138.488 300.621 137.338 300.604C136.532 300.592 135.768 299.733 135.76 298.831C135.754 298.092 136.61 297.297 137.4 297.308C138.462 297.323 138.986 297.853 138.993 298.917Z" fill="#01CC88"/>
<path d="M149.048 268.735C149.924 268.726 150.702 269.534 150.681 270.431C150.663 271.251 149.904 272.02 149.101 272.034C148.116 272.051 147.454 271.404 147.442 270.411C147.429 269.411 148.067 268.745 149.048 268.735Z" fill="#01CC88"/>
<path d="M147.441 293.997C147.455 293.037 148.184 292.342 149.129 292.388C150.093 292.435 150.714 293.135 150.682 294.14C150.649 295.198 150.153 295.597 148.92 295.559C147.858 295.526 147.425 295.069 147.441 293.997Z" fill="#01CC88"/>
<path d="M1136.26 217.474L1136.34 217.522L1136.36 217.439L1136.26 217.474ZM1141.8 242.782C1141.69 241.699 1141.78 240.434 1141.59 239.156C1141.34 237.447 1141.16 235.723 1141.01 234.005C1140.86 232.349 1140.31 230.756 1140.04 229.122C1139.79 227.575 1139.23 226.041 1138.62 224.548C1137.31 221.408 1135.9 218.295 1133.64 215.451C1131.89 213.254 1129.83 211.269 1127.09 209.735C1125.61 208.905 1123.9 208.439 1122.12 208.224C1120.86 208.071 1119.58 208.224 1118.28 208.517C1116.45 208.933 1114.9 209.637 1113.49 210.56C1110.73 212.364 1108.77 214.63 1107.13 217.069C1105.62 219.32 1104.46 221.678 1103.54 224.104C1102.98 225.576 1102.43 227.048 1102.09 228.567C1101.88 229.497 1101.66 230.425 1101.47 231.358C1101.16 232.846 1100.71 234.317 1100.7 235.834C1100.7 236.012 1100.74 236.201 1100.68 236.366C1100.14 237.74 1100.66 239.187 1100.16 240.561C1100.28 242.542 1099.96 244.527 1100.38 246.512C1100.6 247.583 1100.58 248.697 1100.63 249.782C1100.7 251.307 1101.22 252.775 1101.3 254.289C1101.32 254.846 1101.44 255.407 1101.6 255.952C1102.03 257.413 1102.48 258.873 1102.98 260.322C1103.36 261.434 1103.77 262.546 1104.28 263.628C1104.91 264.973 1105.58 266.314 1106.36 267.611C1108.19 270.639 1110.36 273.478 1113.86 275.635C1116.07 277.005 1118.48 277.775 1121.37 277.71C1122.98 277.674 1124.5 277.389 1125.87 276.79C1128.1 275.817 1130.01 274.523 1131.52 272.949C1133.84 270.523 1135.67 267.88 1137 265.05C1137.44 264.132 1137.89 263.217 1138.27 262.287C1138.65 261.39 1138.98 260.482 1139.25 259.566C1139.6 258.375 1139.88 257.172 1140.18 255.974C1140.45 254.947 1140.77 253.925 1140.93 252.889C1141.15 251.46 1141.3 250.023 1141.48 248.59C1141.7 246.831 1141.7 245.056 1141.79 243.288C1141.8 243.182 1141.8 243.075 1141.8 242.782ZM1159.56 258.665C1159.63 258.627 1159.75 258.597 1159.77 258.55C1160.16 257.009 1160.61 255.473 1160.91 253.922C1161.01 253.399 1161.55 252.784 1160.72 252.264C1160.59 252.188 1160.73 251.789 1160.87 251.585C1161.01 251.374 1161.3 251.219 1161.51 251.046V248.724C1161.08 248.572 1160.65 248.401 1160.65 247.907C1160.66 247.3 1161.39 247.384 1161.72 247.215C1161.83 246.228 1161.93 245.323 1162.03 244.411C1160.75 244.617 1160.6 244.482 1160.81 243.269C1161.2 243.226 1161.61 243.179 1162.07 243.128C1162.07 242.707 1162.03 242.28 1162.08 241.859C1162.18 241.025 1161.9 240.391 1160.71 240.197V239.315C1161.11 239.145 1161.46 238.992 1161.86 238.816C1161.73 237.958 1161.6 237.127 1161.47 236.301C1161.21 236.234 1161 236.179 1160.71 236.102C1160.75 235.756 1160.42 235.37 1161.03 235.089C1161.15 235.033 1161.25 234.854 1161.24 234.735C1161.21 234.137 1161.17 233.537 1161.06 232.944C1160.98 232.462 1160.7 231.991 1160.69 231.514C1160.67 229.95 1160.01 228.488 1159.57 226.991C1159.47 226.655 1159.36 226.32 1159.24 225.945C1158.59 226.316 1158.26 225.991 1158.01 225.708C1157.46 225.075 1158.5 224.903 1158.74 224.359C1158.1 222.902 1157.4 221.351 1156.72 219.806C1156.04 219.923 1155.49 219.727 1155.07 219.22C1155.35 218.962 1155.64 218.699 1155.9 218.464C1155.44 217.761 1155.03 217.127 1154.61 216.498C1153.09 214.204 1151.13 212.148 1148.57 210.458C1147.07 209.465 1145.36 208.721 1143.36 208.439C1143.32 208.528 1143.27 208.593 1143.28 208.652C1143.29 208.717 1143.38 208.774 1143.39 208.84C1143.48 209.225 1143.25 209.611 1142.87 209.67C1142.48 209.73 1142.11 209.683 1141.89 209.391C1141.67 209.091 1141.79 208.66 1142.19 208.457C1142.37 208.369 1142.6 208.347 1143 208.244C1139.31 208.084 1126.95 208.142 1125.91 208.312C1126.75 208.428 1126.75 208.431 1127.35 208.838C1127.56 208.979 1127.79 209.098 1128 209.234C1128.86 209.776 1129.82 210.249 1130.54 210.881C1131.69 211.889 1132.66 213.01 1133.74 214.067C1133.96 214.276 1134.27 214.449 1134.59 214.567C1135.37 214.857 1135.48 214.902 1135.29 215.507C1135.21 215.737 1135.21 215.886 1135.34 216.075C1135.6 216.434 1135.84 216.799 1136.12 217.213C1136.58 216.907 1136.72 216.322 1137.46 216.564C1137.91 216.711 1138.27 217.171 1138.13 217.412C1137.82 217.948 1137.17 217.909 1136.59 217.897C1137.45 219.616 1138.32 221.337 1139.18 223.047C1139.57 222.754 1139.94 222.604 1140.17 222.741C1140.41 222.874 1140.63 223.096 1140.69 223.306C1140.86 223.945 1140.09 223.978 1139.54 224.144C1139.66 224.491 1139.74 224.798 1139.87 225.093C1140.39 226.287 1140.68 227.522 1141.01 228.751C1141.2 229.469 1141.38 230.187 1141.55 230.908C1141.67 231.46 1141.72 232.023 1141.88 232.569C1141.92 232.726 1142.22 232.855 1142.44 232.961C1142.54 233.011 1142.72 232.957 1142.85 232.986C1143.6 233.148 1143.75 233.611 1143.16 234.009C1142.87 234.201 1142.49 234.304 1142.26 234.396C1142.34 235.297 1142.4 236.132 1142.45 236.772C1142.93 237.139 1143.26 237.388 1143.63 237.666C1143.27 238.014 1143 238.282 1142.7 238.575C1142.64 239.663 1142.5 240.808 1143.57 241.765C1143.04 242.314 1142.86 242.877 1142.93 243.502C1142.98 243.891 1142.95 244.286 1142.94 244.678C1142.93 245 1142.93 245.301 1143.29 245.557C1143.68 245.833 1143.57 246.133 1143.19 246.378C1143.02 246.485 1142.84 246.572 1142.76 246.612C1142.66 247.515 1142.56 248.317 1142.47 249.151C1142.9 249.355 1143.49 249.511 1143.5 250.018C1143.51 250.555 1142.79 250.474 1142.34 250.71C1142.2 251.61 1142.06 252.536 1141.91 253.525C1142.23 253.45 1142.48 253.392 1142.76 253.327C1142.89 253.409 1143.06 253.483 1143.17 253.588C1143.72 254.076 1143.6 254.345 1142.85 254.64C1142.25 254.874 1141.98 254.486 1141.71 254.303C1141.43 255.49 1141.15 256.624 1140.87 257.757C1140.73 258.339 1140.37 258.942 1140.48 259.494C1140.6 260.078 1140.98 260.572 1139.99 260.891C1139.88 260.924 1139.88 261.145 1139.83 261.276C1139.27 262.568 1138.73 263.866 1138.12 265.146C1137.97 265.462 1137.8 265.706 1138.07 266.032C1138.32 266.327 1138.11 266.627 1137.77 266.763C1137.06 267.055 1136.81 267.581 1136.48 268.074C1135.73 269.166 1134.96 270.25 1134.21 271.342C1134.09 271.525 1134.02 271.731 1133.93 271.926C1133.83 271.996 1133.74 272.066 1133.64 272.136C1133.1 272.679 1132.55 273.222 1132.02 273.752C1132.32 274.016 1132.57 274.226 1132.84 274.457C1132.67 274.692 1132.51 274.904 1132.37 275.098C1131.79 275.199 1131.27 275.228 1130.96 274.823C1130.48 275.163 1130 275.502 1129.52 275.841C1130.25 276.702 1130.23 276.807 1129.09 277.29C1128.77 277.118 1128.42 276.928 1128.03 276.713C1127.43 276.993 1126.78 277.29 1125.9 277.699H1127.43C1131.84 277.699 1136.25 277.684 1140.66 277.708C1142.1 277.716 1143.49 277.595 1144.83 277.162C1144.57 276.881 1144.09 276.641 1144.48 276.237C1144.85 275.842 1145.38 275.973 1145.86 276.022C1146.06 276.228 1146.25 276.415 1146.46 276.632C1149.36 275.203 1151.55 273.355 1153.31 271.182C1152.57 270.76 1152.37 270.461 1152.56 270.124C1152.76 269.771 1153.16 269.72 1154.28 269.955C1154.53 269.576 1154.8 269.179 1155.04 268.776C1155.26 268.433 1155.44 268.078 1155.65 267.736C1155.82 267.451 1156.07 267.186 1156.22 266.894C1156.8 265.755 1157.34 264.602 1157.95 263.469C1158.13 263.115 1158.24 262.81 1157.97 262.467C1157.72 262.164 1157.9 261.935 1158.21 261.724C1158.44 261.568 1158.79 261.41 1158.84 261.218C1159.05 260.36 1159.69 259.572 1159.56 258.661L1159.56 258.665ZM1131 207.316C1134.38 207.316 1137.76 207.319 1141.14 207.314C1142.69 207.312 1144.14 207.625 1145.55 208.092C1149.06 209.257 1151.52 211.309 1153.62 213.646C1155.84 216.12 1157.43 218.834 1158.73 221.654C1159.57 223.501 1160.33 225.371 1160.85 227.282C1161.23 228.682 1161.7 230.071 1161.86 231.511C1162.01 232.795 1162.38 234.064 1162.65 235.34C1162.67 235.444 1162.67 235.553 1162.67 235.66C1162.69 237.786 1163.12 239.901 1162.97 242.034C1162.92 242.781 1162.99 243.532 1162.95 244.28C1162.87 246.334 1162.83 248.391 1162.64 250.439C1162.51 251.687 1162.1 252.918 1161.86 254.161C1161.75 254.749 1161.76 255.34 1161.59 255.939C1161.03 257.952 1160.42 259.951 1159.69 261.937C1158.7 264.655 1157.36 267.259 1155.63 269.744C1154.17 271.838 1152.51 273.844 1150.22 275.478C1148.55 276.662 1146.71 277.691 1144.48 278.172C1143.51 278.379 1142.49 278.549 1141.49 278.553C1134.5 278.587 1127.51 278.583 1120.51 278.565C1119.12 278.562 1117.79 278.284 1116.51 277.85C1113.34 276.779 1111.03 274.988 1109.05 272.881C1107.61 271.355 1106.39 269.737 1105.35 268.049C1104.1 266.022 1103.09 263.917 1102.36 261.742C1101.85 260.188 1101.14 258.674 1100.92 257.059C1100.81 256.2 1100.41 255.364 1100.21 254.508C1100.03 253.75 1100.02 252.968 1099.81 252.217C1099.56 251.306 1099.69 250.378 1099.52 249.48C1098.9 246.38 1099 243.265 1099.02 240.151C1099.02 239.559 1099.18 238.967 1099.26 238.375C1099.34 237.818 1099.11 237.244 1099.5 236.698C1099.62 236.53 1099.54 236.28 1099.54 236.067C1099.53 234.971 1099.68 233.898 1100.06 232.833C1100.28 232.231 1100.27 231.584 1100.39 230.96C1100.6 229.959 1100.75 228.948 1101.05 227.963C1101.54 226.332 1102.1 224.711 1102.7 223.102C1103.01 222.264 1103.48 221.46 1103.88 220.641C1104.66 219.058 1105.54 217.507 1106.63 216.039C1107.74 214.541 1108.94 213.087 1110.39 211.74C1111.66 210.568 1113.19 209.687 1114.71 208.763C1114.89 208.655 1115.11 208.583 1115.32 208.504C1117.29 207.76 1119.32 207.274 1121.56 207.305C1124.71 207.348 1127.85 207.316 1131 207.316Z" fill="#FFB129"/>
<path d="M1153.35 218.029C1152.71 217.73 1152.32 217.41 1152.58 216.859C1153.53 216.468 1153.86 216.455 1154.12 216.803C1154.4 217.183 1154.22 217.489 1153.35 218.029Z" fill="#FFB129"/>
<path d="M1145.15 240.483C1144.03 239.711 1144.03 239.701 1145.17 239.003C1145.7 239.089 1146.18 239.315 1146.21 239.706C1146.24 240.107 1145.75 240.333 1145.15 240.483Z" fill="#FFB129"/>
<path d="M1145.1 210.382C1145.57 210.363 1146.24 210.839 1146.25 211.043C1146.25 211.306 1145.77 211.768 1145.44 211.806C1144.98 211.861 1144.23 211.37 1144.38 211.042C1144.52 210.757 1144.91 210.544 1145.1 210.382Z" fill="#FFB129"/>
<path d="M1154.98 231.493C1155.19 231.306 1155.29 231.182 1155.43 231.094C1156.05 230.711 1156.86 230.92 1157.01 231.505C1157.09 231.793 1156.89 232.018 1156.57 232.095C1156.27 232.166 1155.88 232.196 1155.61 232.103C1155.37 232.016 1155.23 231.745 1154.98 231.493Z" fill="#FFB129"/>
<path d="M1156.26 240.478C1155.65 240.351 1155.16 240.107 1155.16 239.731C1155.16 239.355 1155.65 239.109 1156.17 239.004C1157.34 239.672 1157.34 239.69 1156.26 240.478Z" fill="#FFB129"/>
<path d="M1145.18 273.281C1144.72 272.925 1144.08 272.725 1144.47 272.208C1144.63 271.997 1144.99 271.834 1145.31 271.75C1145.55 271.689 1146.24 272.244 1146.23 272.431C1146.22 272.524 1146.16 272.639 1146.07 272.702C1145.8 272.901 1145.5 273.081 1145.18 273.281Z" fill="#FFB129"/>
<path d="M1159.58 241.815C1159.55 242.224 1159.21 242.446 1158.66 242.418C1158.12 242.39 1157.82 242.129 1157.86 241.713C1157.89 241.309 1158.24 241.084 1158.79 241.108C1159.32 241.133 1159.61 241.39 1159.58 241.815Z" fill="#FFB129"/>
<path d="M1147.98 245.18C1148.54 245.168 1148.85 245.391 1148.87 245.81C1148.89 246.231 1148.59 246.471 1148.04 246.483C1147.48 246.496 1147.16 246.27 1147.15 245.856C1147.13 245.436 1147.43 245.193 1147.98 245.18Z" fill="#FFB129"/>
<path d="M1156.61 247.354C1156.77 247.582 1156.9 247.764 1157.07 248.005C1156.82 248.195 1156.61 248.462 1156.3 248.562C1155.68 248.767 1155.42 248.342 1155.04 248.021C1155.17 247.82 1155.3 247.606 1155.46 247.354H1156.61Z" fill="#FFB129"/>
<path d="M1154.23 241.817C1154.19 242.226 1153.85 242.446 1153.3 242.418C1152.76 242.391 1152.47 242.133 1152.51 241.712C1152.54 241.305 1152.88 241.083 1153.44 241.108C1153.96 241.133 1154.26 241.4 1154.23 241.817Z" fill="#FFB129"/>
<path d="M1145.87 232.121C1145.23 232.161 1144.62 232.267 1144.38 231.733C1144.21 231.367 1144.6 231.15 1144.93 230.957C1145.22 230.785 1145.52 230.802 1145.8 230.996C1146.19 231.268 1146.22 231.551 1145.87 232.121Z" fill="#FFB129"/>
<path d="M1148.87 241.746C1148.88 242.168 1148.59 242.406 1148.03 242.417C1147.48 242.429 1147.16 242.201 1147.15 241.783C1147.14 241.364 1147.44 241.117 1147.99 241.109C1148.54 241.1 1148.86 241.328 1148.87 241.746Z" fill="#FFB129"/>
<path d="M1154.23 245.82C1154.24 246.244 1153.94 246.477 1153.38 246.483C1152.82 246.49 1152.52 246.265 1152.51 245.845C1152.5 245.42 1152.8 245.186 1153.35 245.18C1153.9 245.174 1154.22 245.4 1154.23 245.82Z" fill="#FFB129"/>
<path d="M1155.5 236.182C1155.15 235.613 1155.18 235.34 1155.57 235.066C1155.85 234.873 1156.16 234.848 1156.45 235.025C1156.77 235.221 1157.18 235.434 1157 235.798C1156.71 236.378 1156.06 236.215 1155.5 236.182Z" fill="#FFB129"/>
<path d="M1141.85 225.857V224.966C1142.12 224.856 1142.37 224.76 1142.7 224.627C1142.93 224.799 1143.28 224.952 1143.42 225.178C1143.73 225.646 1143.18 225.856 1142.76 226.153C1142.5 226.068 1142.21 225.976 1141.85 225.857Z" fill="#FFB129"/>
<path d="M1148.87 237.714C1148.86 238.132 1148.54 238.359 1147.99 238.349C1147.44 238.34 1147.14 238.097 1147.15 237.678C1147.16 237.261 1147.47 237.035 1148.03 237.045C1148.59 237.054 1148.88 237.29 1148.87 237.714Z" fill="#FFB129"/>
<path d="M1153.34 237.044C1153.9 237.037 1154.22 237.264 1154.23 237.68C1154.24 238.099 1153.93 238.341 1153.39 238.349C1152.83 238.357 1152.52 238.133 1152.51 237.712C1152.5 237.287 1152.79 237.053 1153.34 237.044Z" fill="#FFB129"/>
<path d="M1148.03 265.707C1148.58 265.717 1148.88 265.954 1148.87 266.374C1148.86 266.796 1148.55 267.021 1147.99 267.013C1147.44 267.004 1147.14 266.767 1147.15 266.344C1147.15 265.927 1147.47 265.698 1148.03 265.707Z" fill="#FFB129"/>
<path d="M1153.38 267.012C1152.82 267.017 1152.52 266.795 1152.51 266.372C1152.5 265.949 1152.8 265.714 1153.35 265.708C1153.9 265.701 1154.22 265.931 1154.23 266.348C1154.23 266.773 1153.93 267.007 1153.38 267.012Z" fill="#FFB129"/>
<path d="M1148.87 270.415C1148.88 270.836 1148.57 271.076 1148.02 271.084C1147.47 271.092 1147.16 270.858 1147.15 270.441C1147.14 270.016 1147.44 269.782 1147.99 269.776C1148.55 269.77 1148.86 269.997 1148.87 270.415Z" fill="#FFB129"/>
<path d="M1159.56 258.661C1159.26 258.726 1158.96 258.792 1158.65 258.857C1157.91 258.37 1157.91 257.885 1158.67 257.402C1158.76 257.418 1158.85 257.424 1158.93 257.454C1159.13 257.535 1159.32 257.626 1159.56 257.731L1159.56 258.665L1159.56 258.661Z" fill="#FFB129"/>
<path d="M1145.92 243.287C1146.22 243.869 1146.16 244.2 1145.75 244.433C1145.45 244.603 1145.15 244.584 1144.87 244.402C1144.54 244.193 1144.22 243.976 1144.39 243.606C1144.52 243.317 1144.84 243.255 1145.92 243.287Z" fill="#FFB129"/>
<path d="M1151.42 272.482C1151.41 272.945 1151.12 273.223 1150.67 273.209C1150.3 273.197 1149.8 272.796 1149.78 272.49C1149.76 272.15 1150.31 271.699 1150.72 271.716C1151.17 271.734 1151.43 272.021 1151.42 272.482Z" fill="#FFB129"/>
<path d="M1154.98 264.236C1155.18 264.052 1155.28 263.931 1155.41 263.842C1156.02 263.449 1156.79 263.609 1157 264.191C1157.05 264.33 1156.95 264.534 1156.84 264.667C1156.6 264.949 1156.2 264.893 1155.83 264.869C1155.75 264.863 1155.66 264.808 1155.6 264.759C1155.41 264.61 1155.24 264.452 1154.98 264.236Z" fill="#FFB129"/>
<path d="M1147.94 275.148C1147.41 275.123 1147.11 274.863 1147.15 274.444C1147.18 274.039 1147.53 273.814 1148.08 273.842C1148.62 273.87 1148.9 274.127 1148.87 274.548C1148.84 274.954 1148.5 275.173 1147.94 275.148Z" fill="#FFB129"/>
<path d="M1139.82 271.693C1140.15 271.824 1140.39 271.921 1140.63 272.019C1140.66 272.132 1140.7 272.233 1140.7 272.334C1140.71 272.508 1140.71 272.682 1140.71 272.86C1140.39 272.992 1140.12 273.107 1139.86 273.215C1138.67 272.492 1138.67 272.477 1139.82 271.693Z" fill="#FFB129"/>
<path d="M1142.71 258.884C1142.44 258.788 1142.16 258.685 1141.85 258.57V257.711C1142.11 257.601 1142.38 257.486 1142.64 257.379C1143.83 258.101 1143.83 258.115 1142.71 258.884Z" fill="#FFB129"/>
<path d="M1153.43 232.974C1153.97 232.998 1154.26 233.26 1154.23 233.677C1154.19 234.085 1153.85 234.31 1153.3 234.283C1152.76 234.257 1152.47 233.998 1152.51 233.577C1152.54 233.166 1152.87 232.949 1153.43 232.974Z" fill="#FFB129"/>
<path d="M1147.94 234.284C1147.41 234.258 1147.12 233.995 1147.15 233.574C1147.18 233.168 1147.52 232.945 1148.08 232.974C1148.62 233.003 1148.91 233.263 1148.87 233.681C1148.83 234.087 1148.49 234.31 1147.94 234.284Z" fill="#FFB129"/>
<path d="M1146.24 223.234C1145.77 223.98 1145.37 224.176 1144.77 223.958C1144.3 223.787 1144.29 223.504 1144.75 222.786C1145.44 222.561 1145.88 222.812 1146.24 223.234Z" fill="#FFB129"/>
<path d="M1155.5 243.282C1156.06 243.239 1156.71 243.085 1157 243.661C1157.18 244.024 1156.77 244.24 1156.45 244.435C1156.16 244.61 1155.85 244.587 1155.57 244.396C1155.18 244.124 1155.15 243.85 1155.5 243.282Z" fill="#FFB129"/>
<path d="M1146.25 251.916C1146.17 252.058 1146.11 252.154 1146.06 252.252C1145.9 252.544 1145.6 252.785 1145.21 252.651C1144.87 252.533 1144.57 252.265 1144.38 252.008C1144.21 251.782 1144.55 251.461 1144.94 251.392C1145.54 251.286 1145.92 251.516 1146.25 251.916Z" fill="#FFB129"/>
<path d="M1150.46 240.456C1149.92 239.99 1149.9 239.514 1150.39 239.03C1151.04 239.004 1151.52 239.285 1151.55 239.708C1151.59 240.159 1151.05 240.393 1150.46 240.456Z" fill="#FFB129"/>
<path d="M1146.28 247.832C1146.13 248.052 1146.03 248.259 1145.85 248.417C1145.58 248.67 1145.23 248.69 1144.87 248.477C1144.38 248.186 1144.22 247.857 1144.47 247.58C1144.75 247.259 1145.26 247.207 1145.82 247.465C1145.97 247.536 1146.07 247.665 1146.28 247.832Z" fill="#FFB129"/>
<path d="M1146.24 227.557C1145.89 227.991 1145.42 228.262 1144.74 227.992C1144.55 227.915 1144.39 227.66 1144.38 227.478C1144.35 227.196 1144.92 226.807 1145.29 226.78C1145.66 226.752 1145.78 226.844 1146.24 227.557Z" fill="#FFB129"/>
<path d="M1157.03 227.435C1156.91 227.61 1156.79 227.795 1156.66 227.993C1155.89 228.257 1155.44 227.962 1155.08 227.486C1155.9 226.526 1156.07 226.519 1157.03 227.435Z" fill="#FFB129"/>
<path d="M1158.66 253.296C1158.96 253.409 1159.2 253.499 1159.51 253.615V254.532C1159.27 254.598 1159.01 254.746 1158.79 254.712C1158.5 254.668 1158.2 254.518 1158 254.351C1157.69 254.101 1157.82 253.905 1158.66 253.296Z" fill="#FFB129"/>
<path d="M1153.42 253.302C1154.54 254.086 1154.54 254.129 1153.33 254.799C1152.88 254.607 1152.46 254.399 1152.51 253.925C1152.53 253.678 1152.52 253.678 1153.42 253.302Z" fill="#FFB129"/>
<path d="M1156.61 251.416C1156.78 251.655 1156.9 251.838 1157.15 252.193C1156.89 252.332 1156.62 252.552 1156.28 252.64C1155.66 252.804 1155.38 252.41 1155.05 252.073C1155.32 251.557 1155.76 251.278 1156.61 251.416Z" fill="#FFB129"/>
<path d="M1150.11 260.777C1149.95 260.524 1149.82 260.338 1149.68 260.114C1150.05 259.816 1150.28 259.332 1151.01 259.583C1151.42 259.724 1151.57 260.045 1151.52 260.362C1151.48 260.727 1151.2 260.797 1150.11 260.777Z" fill="#FFB129"/>
<path d="M1155.04 260.177C1156.03 259.257 1156.04 259.257 1157.04 260.153C1156.9 260.351 1156.75 260.563 1156.62 260.753C1155.86 260.947 1155.43 260.667 1155.04 260.177Z" fill="#FFB129"/>
<path d="M1146.25 264.342C1145.86 264.809 1145.4 265.021 1144.78 264.823C1144.46 264.72 1144.21 264.465 1144.38 264.226C1144.57 263.971 1144.9 263.674 1145.24 263.61C1145.91 263.484 1146.02 263.988 1146.25 264.342Z" fill="#FFB129"/>
<path d="M1143.13 266.961C1142.51 267.059 1142 267.056 1141.83 266.565C1141.73 266.29 1141.75 265.983 1142.12 265.814C1142.5 265.644 1142.92 265.624 1143.27 265.876C1143.87 266.312 1143.23 266.618 1143.13 266.961Z" fill="#FFB129"/>
<path d="M1140.01 210.37C1140.39 210.577 1140.82 210.788 1140.69 211.207C1140.62 211.42 1140.42 211.67 1140.19 211.772C1140.03 211.841 1139.64 211.732 1139.45 211.617C1138.8 211.241 1138.83 210.875 1139.5 210.532C1139.65 210.456 1139.84 210.423 1140.01 210.37Z" fill="#FFB129"/>
<path d="M1136.24 213.233C1136.33 213.082 1136.37 212.939 1136.47 212.827C1136.92 212.331 1137.29 212.307 1137.82 212.716C1138.1 212.931 1138.3 213.158 1138.05 213.464C1137.83 213.752 1137.46 213.783 1137.08 213.739C1136.95 213.724 1136.81 213.674 1136.71 213.609C1136.54 213.493 1136.39 213.354 1136.24 213.233Z" fill="#FFB129"/>
<path d="M1145.13 267.664C1145.63 267.748 1146.07 267.895 1146.16 268.289C1146.2 268.465 1146.06 268.668 1145.98 268.909C1145.36 268.932 1144.68 269.129 1144.39 268.553C1144.17 268.103 1144.7 267.869 1145.13 267.664Z" fill="#FFB129"/>
<path d="M1138.17 270.426C1137.19 271.337 1137.18 271.337 1136.18 270.443C1136.47 269.954 1136.9 269.652 1137.73 269.827C1137.87 270.019 1138.02 270.229 1138.17 270.426Z" fill="#FFB129"/>
<path d="M1146.27 260.27C1145.96 260.598 1145.66 260.909 1145.12 260.8C1144.84 260.745 1144.5 260.583 1144.39 260.401C1144.19 260.043 1144.6 259.816 1144.93 259.619C1145.22 259.444 1145.56 259.45 1145.8 259.67C1146 259.849 1146.12 260.077 1146.27 260.27Z" fill="#FFB129"/>
<path d="M1147.95 213.75C1147.41 213.727 1147.12 213.479 1147.15 213.065C1147.17 212.702 1147.51 212.4 1147.9 212.458C1148.42 212.534 1148.96 212.715 1148.88 213.159C1148.8 213.562 1148.5 213.774 1147.95 213.75Z" fill="#FFB129"/>
<path d="M1146.28 215.075C1146.15 215.297 1146.08 215.479 1145.94 215.611C1145.56 215.969 1145.21 215.975 1144.76 215.669C1144.34 215.379 1144.24 215.096 1144.47 214.842C1144.76 214.523 1145.19 214.516 1145.59 214.625C1145.84 214.691 1146.01 214.892 1146.28 215.075Z" fill="#FFB129"/>
<path d="M1142.52 217.97C1142.03 217.719 1141.68 217.469 1141.82 217.062C1141.88 216.878 1142.05 216.646 1142.26 216.579C1142.46 216.515 1142.81 216.577 1143.01 216.682C1143.81 217.118 1143.67 217.489 1142.52 217.97Z" fill="#FFB129"/>
<path d="M1147.84 217.951C1147.15 217.436 1146.97 217.121 1147.28 216.805C1147.42 216.661 1147.73 216.544 1147.96 216.537C1148.35 216.525 1148.87 216.96 1148.86 217.243C1148.86 217.75 1148.29 217.809 1147.84 217.951Z" fill="#FFB129"/>
<path d="M1158.33 238.316C1158.1 237.978 1157.54 237.674 1158.09 237.227C1158.42 236.953 1158.84 236.988 1159.23 237.141C1159.62 237.297 1159.65 237.6 1159.56 237.88C1159.4 238.377 1158.89 238.388 1158.33 238.316Z" fill="#FFB129"/>
<path d="M1136.22 274.498C1137.1 273.603 1137.14 273.601 1138.13 274.42C1137.56 275.416 1137.15 275.433 1136.22 274.498Z" fill="#FFB129"/>
<path d="M1139.42 219.904C1139.23 219.555 1138.66 219.241 1139.24 218.807C1139.53 218.596 1140.07 218.576 1140.39 218.749C1140.75 218.944 1140.76 219.227 1140.69 219.509C1140.6 219.833 1140.34 219.904 1139.42 219.904Z" fill="#FFB129"/>
<path d="M1146.25 219.183C1146.17 219.328 1146.11 219.424 1146.06 219.522C1145.89 219.813 1145.6 220.056 1145.21 219.92C1144.87 219.801 1144.57 219.532 1144.38 219.275C1144.21 219.049 1144.55 218.731 1144.94 218.659C1145.55 218.549 1145.92 218.789 1146.25 219.183Z" fill="#FFB129"/>
<path d="M1157.05 223.315C1156.81 223.619 1156.82 223.99 1156.25 224.02C1155.63 224.054 1155.34 223.752 1155.08 223.41C1155.9 222.485 1156 222.478 1157.05 223.315Z" fill="#FFB129"/>
<path d="M1141.85 229.013C1143.07 228.896 1143.45 228.997 1143.51 229.413C1143.55 229.727 1143.02 230.174 1142.57 230.209C1142.02 230.252 1141.81 229.921 1141.85 229.013Z" fill="#FFB129"/>
<path d="M1148.09 226.127C1146.78 225.667 1146.77 225.363 1148.03 224.67C1149.2 225.369 1149.2 225.389 1148.09 226.127Z" fill="#FFB129"/>
<path d="M1153.34 224.626C1153.88 224.864 1154.27 225.085 1154.23 225.558C1154.19 225.985 1153.7 225.981 1153.37 226.132C1152.19 225.45 1152.19 225.411 1153.34 224.626Z" fill="#FFB129"/>
<path d="M1145.08 234.929C1145.7 235.005 1146.18 235.235 1146.21 235.689C1146.22 235.892 1146.03 236.235 1145.52 236.221C1145.11 236.209 1144.66 236.266 1144.45 235.915C1144.11 235.38 1144.73 235.196 1145.08 234.929Z" fill="#FFB129"/>
<path d="M1151.27 214.599C1151.57 215.227 1151.54 215.561 1151.09 215.758C1150.89 215.845 1150.54 215.856 1150.34 215.783C1149.93 215.641 1149.78 215.202 1149.92 214.916C1150.18 214.367 1150.74 214.633 1151.27 214.599Z" fill="#FFB129"/>
<path d="M1133.66 272.146C1133.75 272.073 1133.84 272.001 1133.93 271.928C1134.14 271.864 1134.41 271.705 1134.55 271.754C1134.83 271.848 1135.09 272.033 1135.27 272.228C1135.53 272.509 1135.37 272.678 1134.5 273.205C1133.9 273.005 1133.52 272.698 1133.66 272.146Z" fill="#FFB129"/>
<path d="M1159.58 233.578C1159.61 233.95 1159.34 234.242 1158.93 234.277C1158.51 234.313 1157.91 233.915 1157.86 233.571C1157.82 233.266 1158.18 232.999 1158.66 232.975C1159.21 232.946 1159.55 233.169 1159.58 233.578Z" fill="#FFB129"/>
<path d="M1141.84 221.76C1141.82 220.943 1141.93 220.689 1142.39 220.708C1142.74 220.722 1143.13 220.907 1143.4 221.097C1143.51 221.178 1143.45 221.507 1143.33 221.652C1143.04 221.994 1142.62 222.01 1141.84 221.76Z" fill="#FFB129"/>
<path d="M1158.8 250.552C1158.31 250.575 1157.92 250.373 1157.87 250.066C1157.82 249.759 1158.34 249.294 1158.79 249.25C1159.19 249.211 1159.54 249.475 1159.58 249.842C1159.62 250.264 1159.34 250.527 1158.8 250.552Z" fill="#FFB129"/>
<path d="M1149.66 227.392C1150.08 227.032 1150.35 226.611 1150.97 226.834C1151.62 227.069 1151.42 227.529 1151.35 228.013C1150.96 228.041 1150.57 228.069 1150.18 228.097C1150 227.845 1149.84 227.639 1149.66 227.392Z" fill="#FFB129"/>
<path d="M1158.74 246.483C1158.26 246.489 1157.88 246.26 1157.86 245.953C1157.85 245.635 1158.41 245.191 1158.84 245.181C1159.25 245.171 1159.57 245.45 1159.58 245.819C1159.59 246.247 1159.3 246.477 1158.74 246.483Z" fill="#FFB129"/>
<path d="M1148.01 258.857C1146.8 258.177 1146.8 258.089 1148.01 257.403C1149.21 258.088 1149.21 258.174 1148.01 258.857Z" fill="#FFB129"/>
<path d="M1153.47 257.4C1154.54 258.142 1154.54 258.164 1153.41 258.857C1152.14 258.203 1152.15 257.985 1153.47 257.4Z" fill="#FFB129"/>
<path d="M1140.71 215.168C1140.74 215.541 1140.47 215.835 1140.07 215.873C1139.66 215.912 1139.05 215.519 1139 215.18C1138.95 214.875 1139.3 214.604 1139.78 214.579C1140.34 214.55 1140.68 214.76 1140.71 215.168Z" fill="#FFB129"/>
<path d="M1143.5 213.252C1143.46 213.563 1143.08 213.769 1142.59 213.751C1142.05 213.73 1141.77 213.484 1141.8 213.057C1141.83 212.689 1142.17 212.42 1142.57 212.45C1143.02 212.484 1143.55 212.936 1143.5 213.252Z" fill="#FFB129"/>
<path d="M1134.54 210.295C1135.67 211.087 1135.67 211.109 1134.52 211.794C1133.3 211.132 1133.29 211.044 1134.54 210.295Z" fill="#FFB129"/>
<path d="M1150.11 236.201C1149.8 235.582 1149.84 235.25 1150.28 235.043C1150.48 234.953 1150.82 234.938 1151.03 235.009C1151.44 235.149 1151.59 235.588 1151.46 235.875C1151.21 236.43 1150.64 236.162 1150.11 236.201Z" fill="#FFB129"/>
<path d="M1146.35 256.109C1145.32 256.996 1145.31 256.996 1144.38 256.137C1145.19 255.191 1145.34 255.185 1146.35 256.109Z" fill="#FFB129"/>
<path d="M1142.71 262.971C1142.4 262.847 1142.16 262.751 1141.84 262.624C1141.83 262.49 1141.8 262.322 1141.8 262.155C1141.8 262.021 1141.84 261.887 1141.86 261.8C1142.17 261.562 1143.01 261.606 1143.3 261.83C1143.68 262.122 1143.57 262.344 1142.71 262.971Z" fill="#FFB129"/>
<path d="M1155.03 256.133C1155.99 255.202 1156.02 255.201 1157 256.01C1156.3 256.978 1156.08 256.998 1155.03 256.133Z" fill="#FFB129"/>
<path d="M1154.19 262.579C1153.56 263.022 1153.05 262.945 1152.56 262.591C1152.57 261.814 1152.7 261.651 1153.35 261.642C1154.01 261.634 1154.15 261.788 1154.19 262.579Z" fill="#FFB129"/>
<path d="M1136.16 209.065C1137.13 208.137 1137.14 208.137 1138.13 208.951C1137.41 209.919 1137.2 209.937 1136.16 209.065Z" fill="#FFB129"/>
<path d="M1140.71 264.288C1140.68 264.698 1140.34 264.915 1139.78 264.885C1139.3 264.859 1138.95 264.59 1139 264.285C1139.05 263.944 1139.65 263.548 1140.06 263.584C1140.46 263.619 1140.74 263.916 1140.71 264.288Z" fill="#FFB129"/>
<path d="M1154.16 249.596C1154.3 249.996 1154.28 250.361 1153.68 250.535C1153.28 250.65 1152.76 250.506 1152.6 250.246C1152.45 249.985 1152.4 249.706 1152.72 249.489C1153.24 249.134 1153.71 249.288 1154.16 249.596Z" fill="#FFB129"/>
<path d="M1151.35 264.855H1150.14C1149.98 264.624 1149.83 264.415 1149.69 264.202C1150.01 263.871 1150.28 263.453 1150.88 263.608C1151.64 263.806 1151.42 264.316 1151.35 264.855Z" fill="#FFB129"/>
<path d="M1151.3 268.917H1150.05C1149.99 268.685 1149.85 268.46 1149.89 268.257C1149.93 268.072 1150.12 267.848 1150.33 267.757C1150.52 267.674 1150.88 267.679 1151.07 267.766C1151.28 267.862 1151.46 268.088 1151.49 268.273C1151.53 268.478 1151.37 268.701 1151.3 268.917Z" fill="#FFB129"/>
<path d="M1139.8 267.625C1140.11 267.747 1140.34 267.841 1140.65 267.959V268.794C1140.34 269.027 1139.49 268.984 1139.2 268.761C1138.82 268.47 1138.93 268.246 1139.8 267.625Z" fill="#FFB129"/>
<path d="M1151.37 247.459C1151.42 247.892 1151.6 248.37 1150.93 248.574C1150.32 248.759 1150.05 248.34 1149.69 248.016C1149.81 247.816 1149.95 247.604 1150.1 247.361C1150.54 247.3 1150.97 247.213 1151.37 247.459Z" fill="#FFB129"/>
<path d="M1158.93 230.205C1158.51 230.237 1157.91 229.846 1157.86 229.505C1157.82 229.201 1158.18 228.935 1158.66 228.911C1159.22 228.884 1159.55 229.1 1159.58 229.508C1159.61 229.885 1159.34 230.173 1158.93 230.205Z" fill="#FFB129"/>
<path d="M1151.34 232.117H1150.12C1149.96 231.878 1149.83 231.665 1149.7 231.459C1150.02 231.121 1150.31 230.71 1150.9 230.879C1151.63 231.091 1151.42 231.596 1151.34 232.117Z" fill="#FFB129"/>
<path d="M1152.56 229.853C1152.45 229.444 1152.45 229.053 1153.12 228.928C1153.49 228.858 1153.89 228.887 1154.11 229.185C1154.3 229.448 1154.34 229.745 1154.02 229.963C1153.51 230.321 1153.01 230.175 1152.56 229.853Z" fill="#FFB129"/>
<path d="M1134.48 277.291C1134.16 277.15 1133.93 277.045 1133.7 276.944C1133.69 276.2 1133.79 276.042 1134.32 275.981C1134.78 275.928 1135.23 276.086 1135.33 276.369C1135.38 276.531 1135.42 276.777 1135.3 276.872C1135.07 277.06 1134.73 277.168 1134.48 277.291Z" fill="#FFB129"/>
<path d="M1139.8 277.294C1139.36 277.023 1138.79 276.807 1139.04 276.355C1139.35 275.808 1140 275.978 1140.66 276.031C1140.68 276.341 1140.7 276.61 1140.72 276.921C1140.4 277.052 1140.09 277.176 1139.8 277.294Z" fill="#FFB129"/>
<path d="M1150.11 243.282C1150.7 243.247 1151.36 243.072 1151.48 243.675C1151.53 243.914 1151.27 244.242 1151.03 244.448C1150.79 244.655 1150.42 244.577 1150.18 244.363C1150.02 244.205 1149.82 244.007 1149.81 243.82C1149.8 243.641 1150 243.453 1150.11 243.282Z" fill="#FFB129"/>
<path d="M1143.07 275.102C1142.52 275.196 1142.03 275.194 1141.82 274.713C1141.68 274.396 1141.88 274.023 1142.23 273.897C1142.64 273.747 1142.9 273.929 1143.2 274.122C1143.8 274.518 1143.25 274.789 1143.07 275.102Z" fill="#FFB129"/>
<path d="M1149.68 252.085C1149.83 251.856 1149.97 251.643 1150.1 251.442C1150.67 251.315 1151.15 251.325 1151.39 251.782C1151.55 252.082 1151.37 252.485 1151.02 252.606C1150.31 252.856 1150.07 252.395 1149.68 252.085Z" fill="#FFB129"/>
<path d="M1149.7 219.361C1149.91 218.934 1150.06 218.554 1150.75 218.646C1151.17 218.703 1151.38 218.892 1151.42 219.212C1151.46 219.52 1151.35 219.793 1150.96 219.906C1150.32 220.085 1150.06 219.688 1149.7 219.361Z" fill="#FFB129"/>
<path d="M1148.08 262.956C1147.52 262.779 1147.01 262.652 1147.16 262.136C1147.24 261.821 1147.49 261.662 1147.92 261.639C1148.34 261.617 1148.69 261.714 1148.82 262.009C1149.04 262.485 1148.51 262.686 1148.08 262.956Z" fill="#FFB129"/>
<path d="M1147.82 253.145C1148.25 253.411 1148.45 253.478 1148.53 253.591C1148.67 253.794 1148.9 254.09 1148.81 254.23C1148.65 254.447 1148.28 254.623 1147.95 254.701C1147.8 254.738 1147.46 254.546 1147.34 254.395C1147.21 254.242 1147.17 253.991 1147.25 253.821C1147.35 253.594 1147.59 253.404 1147.82 253.145Z" fill="#FFB129"/>
<path d="M1153.4 220.554C1153.87 220.841 1154.39 221.04 1154.18 221.517C1154.05 221.812 1153.7 221.908 1153.28 221.887C1152.85 221.866 1152.61 221.709 1152.52 221.395C1152.36 220.872 1152.91 220.777 1153.4 220.554Z" fill="#FFB129"/>
<path d="M1148.1 230.216C1147.52 230.065 1147.04 229.941 1147.15 229.423C1147.23 229.102 1147.47 228.94 1147.9 228.91C1148.3 228.881 1148.66 228.963 1148.81 229.261C1149.05 229.74 1148.53 229.941 1148.1 230.216Z" fill="#FFB129"/>
<path d="M1148.05 249.196C1148.48 249.52 1149.1 249.699 1148.78 250.241C1148.6 250.542 1148.23 250.584 1147.83 250.546C1147.41 250.505 1147.21 250.305 1147.15 249.99C1147.04 249.432 1147.67 249.441 1148.05 249.196Z" fill="#FFB129"/>
<path d="M1143.09 269.803C1143.26 270.053 1143.38 270.235 1143.49 270.392C1143.45 270.692 1142.88 271.08 1142.53 271.084C1142.13 271.088 1141.81 270.811 1141.8 270.448C1141.78 269.944 1141.99 269.831 1143.09 269.803Z" fill="#FFB129"/>
<path d="M1147.99 220.56C1148.92 221.143 1149.05 221.353 1148.7 221.667C1148.38 221.959 1147.69 221.97 1147.34 221.689C1146.97 221.388 1147.09 221.166 1147.99 220.56Z" fill="#FFB129"/>
<path d="M1149.68 256.134C1150.4 255.434 1150.7 255.315 1151.11 255.553C1151.5 255.784 1151.54 256.31 1151.18 256.587C1150.8 256.884 1150.48 256.795 1149.68 256.134Z" fill="#FFB129"/>
<path d="M1149.68 223.403C1150.39 222.704 1150.7 222.586 1151.11 222.822C1151.5 223.049 1151.54 223.578 1151.18 223.854C1150.8 224.149 1150.48 224.061 1149.68 223.403Z" fill="#FFB129"/>
<path d="M1132.73 209.163C1132.41 209.458 1132.14 209.836 1131.51 209.629C1131.12 209.499 1130.99 209.204 1131.11 208.924C1131.2 208.723 1131.43 208.453 1131.66 208.412C1132.42 208.278 1132.51 208.786 1132.73 209.163Z" fill="#FFB129"/>
<path d="M497.387 133.464C497.056 134.202 496.585 134.634 496.176 134.504C495.666 134.342 495.288 134.019 495.322 133.538C495.358 133.02 495.698 132.536 496.157 132.432C496.57 132.338 497.049 132.74 497.387 133.464Z" fill="#01CC88"/>
<path d="M489.071 137.012C488.619 137.906 488.282 138.175 487.811 138.044C487.37 137.92 487.001 137.462 486.993 137.026C486.982 136.529 487.326 136.094 487.886 136.031C488.539 135.958 488.835 136.432 489.071 137.012Z" fill="#01CC88"/>
<path d="M476.598 119.504C476.982 118.648 477.318 118.347 477.78 118.447C478.268 118.553 478.664 119.033 478.654 119.508C478.647 119.856 478.16 120.458 477.825 120.535C477.415 120.629 476.938 120.229 476.598 119.504Z" fill="#01CC88"/>
<path d="M500.194 133.584C500.182 132.94 500.664 132.415 501.245 132.44C501.678 132.458 502.219 133.068 502.215 133.533C502.211 133.911 501.62 134.524 501.252 134.531C500.726 134.542 500.204 134.073 500.194 133.584Z" fill="#01CC88"/>
<path d="M493.937 136.982C493.943 136.46 494.415 135.954 494.896 135.953C495.346 135.951 495.856 136.51 495.858 137.007C495.86 137.491 495.416 138.049 495.015 138.068C494.43 138.095 493.929 137.59 493.937 136.982Z" fill="#01CC88"/>
<path d="M506.271 119.396C506.286 119.781 505.673 120.536 505.335 120.55C504.909 120.568 504.202 119.923 504.194 119.511C504.185 119.013 504.765 118.424 505.253 118.435C505.584 118.443 506.259 119.08 506.271 119.396Z" fill="#01CC88"/>
<path d="M481.131 123.928C480.591 123.942 480.069 123.492 480.074 123.015C480.079 122.449 480.533 121.998 481.122 121.972C481.646 121.948 482.137 122.473 482.128 123.045C482.121 123.481 481.63 123.916 481.131 123.928Z" fill="#01CC88"/>
<path d="M492.387 123.554C492.39 124.114 491.955 124.635 491.492 124.625C490.953 124.613 490.454 124.089 490.466 123.548C490.477 123.055 491.004 122.497 491.442 122.512C491.933 122.529 492.384 123.026 492.387 123.554Z" fill="#01CC88"/>
<path d="M480.733 133.51C480.722 132.936 481.204 132.399 481.714 132.418C482.179 132.435 482.625 132.943 482.656 133.491C482.684 133.985 482.193 134.519 481.703 134.527C481.225 134.536 480.743 134.03 480.733 133.51Z" fill="#01CC88"/>
<path d="M492.387 128.549C492.38 129.057 491.963 129.561 491.537 129.578C491.012 129.6 490.483 129.09 490.466 128.546C490.451 128.044 490.929 127.489 491.398 127.465C491.905 127.439 492.395 127.977 492.387 128.549Z" fill="#01CC88"/>
<path d="M472.925 133.542C472.93 134.003 472.481 134.484 472.009 134.522C471.508 134.564 470.996 134.024 471 133.46C471.004 132.934 471.459 132.434 471.948 132.418C472.434 132.402 472.917 132.958 472.925 133.542Z" fill="#01CC88"/>
<path d="M475.866 133.473C475.867 132.941 476.305 132.447 476.8 132.419C477.281 132.392 477.779 132.949 477.791 133.529C477.803 134.02 477.276 134.55 476.801 134.525C476.305 134.498 475.866 134.004 475.866 133.473Z" fill="#01CC88"/>
<path d="M487.522 133.504C487.514 134.025 487.036 134.531 486.557 134.528C486.109 134.526 485.609 134.033 485.6 133.585C485.588 132.996 486.03 132.443 486.534 132.418C487.041 132.394 487.53 132.932 487.522 133.504Z" fill="#01CC88"/>
<path d="M506.985 133.504C506.975 134.138 506.606 134.553 506.071 134.531C505.535 134.51 505.038 133.968 505.063 133.432C505.086 132.933 505.572 132.456 506.074 132.44C506.538 132.425 506.994 132.958 506.985 133.504Z" fill="#01CC88"/>
<path d="M487.953 129.038C488.542 129.038 488.977 129.427 489.004 129.979C489.032 130.554 488.576 130.995 487.951 130.997C487.471 130.999 487.01 130.55 486.991 130.063C486.97 129.533 487.434 129.038 487.953 129.038Z" fill="#01CC88"/>
<path d="M492.388 133.483C492.386 134.015 491.919 134.524 491.429 134.527C490.973 134.531 490.46 133.962 490.467 133.461C490.474 132.964 491.009 132.397 491.45 132.419C491.949 132.443 492.39 132.943 492.388 133.483Z" fill="#01CC88"/>
<path d="M510.965 132.417C511.724 132.81 512.084 133.277 511.984 133.704C511.884 134.126 511.414 134.518 510.991 134.531C510.557 134.544 510.192 134.253 510.076 133.801C509.916 133.175 510.109 132.864 510.965 132.417Z" fill="#01CC88"/>
<path d="M477.582 148.513C477.065 148.504 476.563 148.005 476.578 147.516C476.592 147.04 477.151 146.538 477.645 146.557C478.144 146.576 478.681 147.126 478.646 147.58C478.605 148.101 478.124 148.523 477.582 148.513Z" fill="#01CC88"/>
<path d="M505.256 148.513C504.721 148.519 504.235 148.084 504.202 147.569C504.173 147.121 504.723 146.57 505.214 146.557C505.71 146.543 506.266 147.053 506.272 147.527C506.278 148.02 505.775 148.508 505.256 148.513Z" fill="#01CC88"/>
<path d="M485.442 126.473C485.445 127.194 485.198 127.467 484.55 127.464C484.03 127.461 483.535 126.992 483.526 126.493C483.517 126.002 484.015 125.511 484.53 125.503C485.191 125.493 485.44 125.757 485.442 126.473Z" fill="#01CC88"/>
<path d="M500.881 122.909C500.89 122.28 501.209 121.97 501.848 121.97C502.333 121.97 502.788 122.468 502.801 123.013C502.813 123.488 502.299 123.933 501.745 123.927C501.118 123.92 500.87 123.629 500.881 122.909Z" fill="#01CC88"/>
<path d="M495.86 129.985C495.877 130.513 495.417 130.998 494.901 130.998C494.302 130.997 493.966 130.657 493.937 130.021C493.907 129.395 494.223 129.059 494.861 129.04C495.446 129.022 495.842 129.397 495.86 129.985Z" fill="#01CC88"/>
<path d="M492.387 118.587C492.394 119.155 491.962 119.68 491.495 119.671C490.953 119.659 490.449 119.128 490.466 118.585C490.483 118.075 490.907 117.636 491.399 117.62C491.954 117.602 492.38 118.019 492.387 118.587Z" fill="#01CC88"/>
<path d="M492.387 153.373C492.492 154.042 492.01 154.304 491.454 154.345C490.982 154.379 490.467 153.895 490.466 153.453C490.466 152.877 490.931 152.394 491.489 152.39C492.147 152.386 492.388 152.65 492.387 153.373Z" fill="#01CC88"/>
<path d="M480.074 144.088C480.443 143.217 480.738 142.946 481.223 143.029C481.695 143.111 482.113 143.586 482.128 144.058C482.139 144.417 481.718 144.902 481.333 144.973C480.691 145.092 480.464 144.932 480.074 144.088Z" fill="#01CC88"/>
<path d="M492.387 148.416C492.483 149.019 492.134 149.331 491.458 149.39C490.938 149.435 490.443 148.867 490.467 148.301C490.486 147.863 490.985 147.439 491.486 147.435C492.141 147.43 492.387 147.698 492.387 148.416Z" fill="#01CC88"/>
<path d="M491.419 114.557C490.74 114.644 490.542 114.201 490.476 113.696C490.408 113.172 490.938 112.626 491.473 112.6C491.936 112.578 492.385 113.095 492.387 113.651C492.389 114.31 492.122 114.559 491.419 114.557Z" fill="#01CC88"/>
<path d="M492.387 138.392C492.399 139.052 492.067 139.471 491.523 139.483C490.978 139.495 490.459 138.972 490.466 138.418C490.473 137.897 490.854 137.551 491.445 137.529C492.07 137.505 492.376 137.785 492.387 138.392Z" fill="#01CC88"/>
<path d="M485.442 140.493C485.438 141.183 485.186 141.439 484.507 141.442C483.871 141.446 483.505 141.103 483.522 140.521C483.537 140.011 484.004 139.544 484.526 139.515C485.107 139.484 485.446 139.846 485.442 140.493Z" fill="#01CC88"/>
<path d="M501.888 143.019C502.371 143.038 502.825 143.584 502.801 144.117C502.779 144.589 502.234 145.008 501.681 144.979C501.107 144.949 500.841 144.613 500.881 143.969C500.92 143.349 501.293 142.997 501.888 143.019Z" fill="#01CC88"/>
<path d="M492.387 143.438C492.392 144.139 492.087 144.45 491.404 144.44C490.925 144.433 490.471 143.923 490.466 143.387C490.463 142.947 490.971 142.475 491.441 142.481C492.072 142.49 492.383 142.805 492.387 143.438Z" fill="#01CC88"/>
<path d="M498.362 125.503C498.882 125.498 499.345 125.978 499.332 126.511C499.321 126.998 498.871 127.455 498.393 127.463C497.808 127.473 497.415 127.089 497.407 126.499C497.4 125.905 497.779 125.509 498.362 125.503Z" fill="#01CC88"/>
<path d="M497.407 140.514C497.416 139.944 497.849 139.531 498.41 139.558C498.983 139.586 499.352 140.002 499.333 140.599C499.313 141.228 499.018 141.465 498.286 141.442C497.655 141.423 497.397 141.151 497.407 140.514Z" fill="#01CC88"/>
</svg>
