<svg width="32" height="32" viewBox="0 0 32 32" fill="none" xmlns="http://www.w3.org/2000/svg">
<path fill-rule="evenodd" clip-rule="evenodd" d="M16.0364 0H15.9636C7.14713 0 0 7.14713 0 15.9636V16.0364C0 24.8529 7.14713 32 15.9636 32H16.0364C24.8529 32 32 24.8529 32 16.0364V15.9636C32 7.14713 24.8529 0 16.0364 0ZM23.1616 8.58324C25.017 10.2907 26.1606 12.6058 26.3814 15.1014C26.4083 15.3951 26.4207 15.6978 26.4207 16.0005V16.0544C26.3937 20.809 22.9957 24.9403 18.3408 25.8809C18.0291 25.9437 17.7118 25.993 17.3979 26.0267C17.0414 26.0637 16.686 26.0816 16.3396 26.0816C15.0223 26.0816 13.742 25.8305 12.5323 25.3349L5.57575 26.076L7.74847 21.2664C6.77422 19.6834 6.25964 17.8661 6.25964 16.0005C6.25964 10.442 10.7822 5.91946 16.3407 5.91946C18.8733 5.91946 21.2949 6.86569 23.1616 8.58324ZM12.8002 23.2239L8.95144 23.6342L10.1006 21.0882L9.87075 20.7799C9.85393 20.7574 9.83712 20.735 9.81806 20.7092C8.82027 19.3314 8.29333 17.7035 8.29333 16.0017C8.29333 11.5643 11.9033 7.95429 16.3407 7.95429C20.4978 7.95429 24.0215 11.1977 24.3612 15.338C24.3791 15.5599 24.3892 15.783 24.3892 16.0028C24.3892 16.0615 24.3882 16.1193 24.3872 16.1807L24.3869 16.1934C24.3017 19.9054 21.7086 23.058 18.0807 23.8607C17.8038 23.9223 17.5201 23.9694 17.2376 23.9997C16.9439 24.0333 16.6423 24.0501 16.3429 24.0501C15.2768 24.0501 14.2409 23.8439 13.2621 23.4358C13.1534 23.3921 13.0469 23.345 12.9471 23.2968L12.8002 23.2239ZM19.1181 20.6801C15.0226 20.6801 11.6907 17.3471 11.6896 13.2516C11.6907 12.2135 12.536 11.3693 13.5719 11.3693C13.6784 11.3693 13.7838 11.3783 13.8847 11.3962C14.1067 11.4332 14.3175 11.5083 14.5114 11.6215C14.5394 11.6384 14.5585 11.6653 14.563 11.6966L14.9957 14.4243C15.0013 14.4568 14.9912 14.4882 14.9699 14.5118C14.7311 14.7764 14.4262 14.9669 14.0865 15.0622L13.9228 15.1082L13.9845 15.2663C14.5428 16.6879 15.6796 17.8235 17.1023 18.3841L17.2604 18.4469L17.3063 18.2832C17.4016 17.9435 17.5922 17.6386 17.8568 17.3998C17.8759 17.3818 17.9017 17.3729 17.9274 17.3729C17.9331 17.3729 17.9387 17.3729 17.9454 17.374L20.6731 17.8067C20.7056 17.8123 20.7325 17.8303 20.7493 17.8583C20.8614 18.0522 20.9365 18.2641 20.9746 18.4861C20.9926 18.5848 21.0004 18.689 21.0004 18.7978C21.0004 19.8348 20.1562 20.679 19.1181 20.6801Z" fill="#0A5F59"/>
</svg>
